%FSTAX42Y42*%
%MOMM*%
G71*
G01*
G75*
G04 Layer_Physical_Order=1*
G04 Layer_Color=255*
%ADD10C,0.35*%
%ADD11C,0.45*%
%ADD12C,0.25*%
G04:AMPARAMS|DCode=13|XSize=0.46mm|YSize=0.61mm|CornerRadius=0mm|HoleSize=0mm|Usage=FLASHONLY|Rotation=350.000|XOffset=0mm|YOffset=0mm|HoleType=Round|Shape=Rectangle|*
%AMROTATEDRECTD13*
4,1,4,-0.28,-0.26,-0.17,0.34,0.28,0.26,0.17,-0.34,-0.28,-0.26,0.0*
%
%ADD13ROTATEDRECTD13*%

G04:AMPARAMS|DCode=14|XSize=1mm|YSize=1.5mm|CornerRadius=0mm|HoleSize=0mm|Usage=FLASHONLY|Rotation=26.400|XOffset=0mm|YOffset=0mm|HoleType=Round|Shape=Rectangle|*
%AMROTATEDRECTD14*
4,1,4,-0.11,-0.89,-0.78,0.45,0.11,0.89,0.78,-0.45,-0.11,-0.89,0.0*
%
%ADD14ROTATEDRECTD14*%

G04:AMPARAMS|DCode=15|XSize=1mm|YSize=1.5mm|CornerRadius=0mm|HoleSize=0mm|Usage=FLASHONLY|Rotation=56.400|XOffset=0mm|YOffset=0mm|HoleType=Round|Shape=Rectangle|*
%AMROTATEDRECTD15*
4,1,4,0.35,-0.83,-0.90,-0.00,-0.35,0.83,0.90,0.00,0.35,-0.83,0.0*
%
%ADD15ROTATEDRECTD15*%

G04:AMPARAMS|DCode=16|XSize=1mm|YSize=1.5mm|CornerRadius=0mm|HoleSize=0mm|Usage=FLASHONLY|Rotation=86.500|XOffset=0mm|YOffset=0mm|HoleType=Round|Shape=Rectangle|*
%AMROTATEDRECTD16*
4,1,4,0.72,-0.54,-0.78,-0.45,-0.72,0.54,0.78,0.45,0.72,-0.54,0.0*
%
%ADD16ROTATEDRECTD16*%

G04:AMPARAMS|DCode=17|XSize=1mm|YSize=1.5mm|CornerRadius=0mm|HoleSize=0mm|Usage=FLASHONLY|Rotation=326.400|XOffset=0mm|YOffset=0mm|HoleType=Round|Shape=Rectangle|*
%AMROTATEDRECTD17*
4,1,4,-0.83,-0.35,-0.00,0.90,0.83,0.35,0.00,-0.90,-0.83,-0.35,0.0*
%
%ADD17ROTATEDRECTD17*%

G04:AMPARAMS|DCode=18|XSize=0.46mm|YSize=0.61mm|CornerRadius=0mm|HoleSize=0mm|Usage=FLASHONLY|Rotation=320.000|XOffset=0mm|YOffset=0mm|HoleType=Round|Shape=Rectangle|*
%AMROTATEDRECTD18*
4,1,4,-0.37,-0.09,0.02,0.38,0.37,0.09,-0.02,-0.38,-0.37,-0.09,0.0*
%
%ADD18ROTATEDRECTD18*%

G04:AMPARAMS|DCode=19|XSize=1mm|YSize=1.5mm|CornerRadius=0mm|HoleSize=0mm|Usage=FLASHONLY|Rotation=296.400|XOffset=0mm|YOffset=0mm|HoleType=Round|Shape=Rectangle|*
%AMROTATEDRECTD19*
4,1,4,-0.89,0.11,0.45,0.78,0.89,-0.11,-0.45,-0.78,-0.89,0.11,0.0*
%
%ADD19ROTATEDRECTD19*%

G04:AMPARAMS|DCode=20|XSize=0.46mm|YSize=0.51mm|CornerRadius=0mm|HoleSize=0mm|Usage=FLASHONLY|Rotation=30.000|XOffset=0mm|YOffset=0mm|HoleType=Round|Shape=Rectangle|*
%AMROTATEDRECTD20*
4,1,4,-0.07,-0.33,-0.32,0.11,0.07,0.33,0.32,-0.11,-0.07,-0.33,0.0*
%
%ADD20ROTATEDRECTD20*%

G04:AMPARAMS|DCode=21|XSize=0.46mm|YSize=0.51mm|CornerRadius=0mm|HoleSize=0mm|Usage=FLASHONLY|Rotation=150.000|XOffset=0mm|YOffset=0mm|HoleType=Round|Shape=Rectangle|*
%AMROTATEDRECTD21*
4,1,4,0.32,0.11,0.07,-0.33,-0.32,-0.11,-0.07,0.33,0.32,0.11,0.0*
%
%ADD21ROTATEDRECTD21*%

G04:AMPARAMS|DCode=22|XSize=1mm|YSize=1.5mm|CornerRadius=0mm|HoleSize=0mm|Usage=FLASHONLY|Rotation=207.000|XOffset=0mm|YOffset=0mm|HoleType=Round|Shape=Rectangle|*
%AMROTATEDRECTD22*
4,1,4,0.11,0.90,0.79,-0.44,-0.11,-0.90,-0.79,0.44,0.11,0.90,0.0*
%
%ADD22ROTATEDRECTD22*%

G04:AMPARAMS|DCode=23|XSize=0.46mm|YSize=0.61mm|CornerRadius=0mm|HoleSize=0mm|Usage=FLASHONLY|Rotation=230.000|XOffset=0mm|YOffset=0mm|HoleType=Round|Shape=Rectangle|*
%AMROTATEDRECTD23*
4,1,4,-0.09,0.37,0.38,-0.02,0.09,-0.37,-0.38,0.02,-0.09,0.37,0.0*
%
%ADD23ROTATEDRECTD23*%

G04:AMPARAMS|DCode=24|XSize=0.46mm|YSize=0.51mm|CornerRadius=0mm|HoleSize=0mm|Usage=FLASHONLY|Rotation=65.000|XOffset=0mm|YOffset=0mm|HoleType=Round|Shape=Rectangle|*
%AMROTATEDRECTD24*
4,1,4,0.13,-0.31,-0.33,-0.10,-0.13,0.31,0.33,0.10,0.13,-0.31,0.0*
%
%ADD24ROTATEDRECTD24*%

G04:AMPARAMS|DCode=25|XSize=0.46mm|YSize=0.61mm|CornerRadius=0mm|HoleSize=0mm|Usage=FLASHONLY|Rotation=260.000|XOffset=0mm|YOffset=0mm|HoleType=Round|Shape=Rectangle|*
%AMROTATEDRECTD25*
4,1,4,-0.26,0.28,0.34,0.17,0.26,-0.28,-0.34,-0.17,-0.26,0.28,0.0*
%
%ADD25ROTATEDRECTD25*%

G04:AMPARAMS|DCode=26|XSize=0.46mm|YSize=0.61mm|CornerRadius=0mm|HoleSize=0mm|Usage=FLASHONLY|Rotation=290.000|XOffset=0mm|YOffset=0mm|HoleType=Round|Shape=Rectangle|*
%AMROTATEDRECTD26*
4,1,4,-0.36,0.11,0.21,0.32,0.36,-0.11,-0.21,-0.32,-0.36,0.11,0.0*
%
%ADD26ROTATEDRECTD26*%

%ADD27R,0.51X0.46*%
G04:AMPARAMS|DCode=28|XSize=0.46mm|YSize=0.51mm|CornerRadius=0mm|HoleSize=0mm|Usage=FLASHONLY|Rotation=120.000|XOffset=0mm|YOffset=0mm|HoleType=Round|Shape=Rectangle|*
%AMROTATEDRECTD28*
4,1,4,0.33,-0.07,-0.11,-0.32,-0.33,0.07,0.11,0.32,0.33,-0.07,0.0*
%
%ADD28ROTATEDRECTD28*%

G04:AMPARAMS|DCode=29|XSize=0.46mm|YSize=0.61mm|CornerRadius=0mm|HoleSize=0mm|Usage=FLASHONLY|Rotation=298.000|XOffset=0mm|YOffset=0mm|HoleType=Round|Shape=Rectangle|*
%AMROTATEDRECTD29*
4,1,4,-0.38,0.06,0.16,0.34,0.38,-0.06,-0.16,-0.34,-0.38,0.06,0.0*
%
%ADD29ROTATEDRECTD29*%

G04:AMPARAMS|DCode=30|XSize=0.46mm|YSize=0.61mm|CornerRadius=0mm|HoleSize=0mm|Usage=FLASHONLY|Rotation=249.000|XOffset=0mm|YOffset=0mm|HoleType=Round|Shape=Rectangle|*
%AMROTATEDRECTD30*
4,1,4,-0.20,0.32,0.37,0.10,0.20,-0.32,-0.37,-0.10,-0.20,0.32,0.0*
%
%ADD30ROTATEDRECTD30*%

G04:AMPARAMS|DCode=31|XSize=0.46mm|YSize=0.61mm|CornerRadius=0mm|HoleSize=0mm|Usage=FLASHONLY|Rotation=21.000|XOffset=0mm|YOffset=0mm|HoleType=Round|Shape=Rectangle|*
%AMROTATEDRECTD31*
4,1,4,-0.10,-0.37,-0.32,0.20,0.10,0.37,0.32,-0.20,-0.10,-0.37,0.0*
%
%ADD31ROTATEDRECTD31*%

G04:AMPARAMS|DCode=32|XSize=0.46mm|YSize=0.61mm|CornerRadius=0mm|HoleSize=0mm|Usage=FLASHONLY|Rotation=190.000|XOffset=0mm|YOffset=0mm|HoleType=Round|Shape=Rectangle|*
%AMROTATEDRECTD32*
4,1,4,0.17,0.34,0.28,-0.26,-0.17,-0.34,-0.28,0.26,0.17,0.34,0.0*
%
%ADD32ROTATEDRECTD32*%

G04:AMPARAMS|DCode=33|XSize=0.46mm|YSize=0.61mm|CornerRadius=0mm|HoleSize=0mm|Usage=FLASHONLY|Rotation=40.000|XOffset=0mm|YOffset=0mm|HoleType=Round|Shape=Rectangle|*
%AMROTATEDRECTD33*
4,1,4,0.02,-0.38,-0.37,0.09,-0.02,0.38,0.37,-0.09,0.02,-0.38,0.0*
%
%ADD33ROTATEDRECTD33*%

G04:AMPARAMS|DCode=34|XSize=0.46mm|YSize=0.61mm|CornerRadius=0mm|HoleSize=0mm|Usage=FLASHONLY|Rotation=81.000|XOffset=0mm|YOffset=0mm|HoleType=Round|Shape=Rectangle|*
%AMROTATEDRECTD34*
4,1,4,0.27,-0.27,-0.34,-0.18,-0.27,0.27,0.34,0.18,0.27,-0.27,0.0*
%
%ADD34ROTATEDRECTD34*%

G04:AMPARAMS|DCode=35|XSize=0.46mm|YSize=0.61mm|CornerRadius=0mm|HoleSize=0mm|Usage=FLASHONLY|Rotation=70.000|XOffset=0mm|YOffset=0mm|HoleType=Round|Shape=Rectangle|*
%AMROTATEDRECTD35*
4,1,4,0.21,-0.32,-0.36,-0.11,-0.21,0.32,0.36,0.11,0.21,-0.32,0.0*
%
%ADD35ROTATEDRECTD35*%

G04:AMPARAMS|DCode=36|XSize=0.46mm|YSize=0.61mm|CornerRadius=0mm|HoleSize=0mm|Usage=FLASHONLY|Rotation=130.000|XOffset=0mm|YOffset=0mm|HoleType=Round|Shape=Rectangle|*
%AMROTATEDRECTD36*
4,1,4,0.38,0.02,-0.09,-0.37,-0.38,-0.02,0.09,0.37,0.38,0.02,0.0*
%
%ADD36ROTATEDRECTD36*%

G04:AMPARAMS|DCode=37|XSize=0.46mm|YSize=0.61mm|CornerRadius=0mm|HoleSize=0mm|Usage=FLASHONLY|Rotation=145.000|XOffset=0mm|YOffset=0mm|HoleType=Round|Shape=Rectangle|*
%AMROTATEDRECTD37*
4,1,4,0.36,0.12,0.01,-0.38,-0.36,-0.12,-0.01,0.38,0.36,0.12,0.0*
%
%ADD37ROTATEDRECTD37*%

G04:AMPARAMS|DCode=38|XSize=0.46mm|YSize=0.61mm|CornerRadius=0mm|HoleSize=0mm|Usage=FLASHONLY|Rotation=175.000|XOffset=0mm|YOffset=0mm|HoleType=Round|Shape=Rectangle|*
%AMROTATEDRECTD38*
4,1,4,0.25,0.28,0.20,-0.32,-0.25,-0.28,-0.20,0.32,0.25,0.28,0.0*
%
%ADD38ROTATEDRECTD38*%

%ADD39R,0.46X0.61*%
G04:AMPARAMS|DCode=40|XSize=0.46mm|YSize=0.61mm|CornerRadius=0mm|HoleSize=0mm|Usage=FLASHONLY|Rotation=200.000|XOffset=0mm|YOffset=0mm|HoleType=Round|Shape=Rectangle|*
%AMROTATEDRECTD40*
4,1,4,0.11,0.36,0.32,-0.21,-0.11,-0.36,-0.32,0.21,0.11,0.36,0.0*
%
%ADD40ROTATEDRECTD40*%

%ADD41R,0.61X0.46*%
%ADD42R,0.46X0.51*%
G04:AMPARAMS|DCode=43|XSize=0.46mm|YSize=0.51mm|CornerRadius=0mm|HoleSize=0mm|Usage=FLASHONLY|Rotation=240.000|XOffset=0mm|YOffset=0mm|HoleType=Round|Shape=Rectangle|*
%AMROTATEDRECTD43*
4,1,4,-0.11,0.32,0.33,0.07,0.11,-0.32,-0.33,-0.07,-0.11,0.32,0.0*
%
%ADD43ROTATEDRECTD43*%

%ADD44R,0.35X0.85*%
G04:AMPARAMS|DCode=45|XSize=1mm|YSize=1.5mm|CornerRadius=0mm|HoleSize=0mm|Usage=FLASHONLY|Rotation=176.400|XOffset=0mm|YOffset=0mm|HoleType=Round|Shape=Rectangle|*
%AMROTATEDRECTD45*
4,1,4,0.55,0.72,0.45,-0.78,-0.55,-0.72,-0.45,0.78,0.55,0.72,0.0*
%
%ADD45ROTATEDRECTD45*%

%ADD46C,0.40*%
%ADD47C,0.30*%
%ADD48C,0.50*%
%ADD49C,0.51*%
%ADD50C,0.60*%
%ADD51C,1.20*%
%ADD52C,0.60*%
%ADD53C,0.87*%
%ADD54C,0.50*%
%ADD55C,0.70*%
%ADD56C,1.27*%
D10*
X017735Y017998D02*
G03*
X017705Y01823I-000131J000101D01*
G01*
X020785Y016029D02*
G03*
X020525Y016034I-000135J-000291D01*
G01*
X022732Y019129D02*
G03*
X022713Y018795I000587J-000201D01*
G01*
X022436Y018915D02*
G03*
X022614Y018779I000179J00005D01*
G01*
D11*
X019993Y021085D02*
G03*
X019932Y021085I-000023J-001496D01*
G01*
X019696Y021044D02*
G03*
X019932Y021083I000099J000137D01*
G01*
X021744Y016462D02*
G03*
X02208Y016756I-000804J001261D01*
G01*
X020785Y016029D02*
G03*
X020945Y016076I-000344J001456D01*
G01*
X022574Y017476D02*
G03*
X022727Y017913I-001319J000706D01*
G01*
X022732Y019129D02*
G03*
X022691Y019261I-001449J-000371D01*
G01*
X022329Y020024D02*
G03*
X022027Y020375I-001271J-000789D01*
G01*
X021307Y020866D02*
G03*
X02087Y021019I-000706J-001319D01*
G01*
X019696Y021044D02*
G03*
X019546Y020999I000353J-001454D01*
G01*
X017735Y017998D02*
G03*
X017782Y017842I001455J000347D01*
G01*
X017912Y01957D02*
G03*
X01776Y019133I001319J-000706D01*
G01*
X018177Y017044D02*
G03*
X01848Y016694I001271J000789D01*
G01*
X018758Y020622D02*
G03*
X018407Y02032I000789J-001271D01*
G01*
X019207Y016202D02*
G03*
X019645Y01605I000706J001319D01*
G01*
D12*
X021964Y016921D02*
G03*
X021649Y016763I-000124J-000146D01*
G01*
X018462Y020232D02*
G03*
X018875Y02025I000199J000176D01*
G01*
D13*
X022632Y017936D02*
D03*
X022728Y017919D02*
D03*
D14*
X02212Y019736D02*
D03*
X022407Y019878D02*
D03*
X022263Y019807D02*
D03*
X022481Y019368D02*
D03*
X022624Y019439D02*
D03*
X022338Y019297D02*
D03*
D15*
X02127Y020513D02*
D03*
X021447Y02078D02*
D03*
X021358Y020647D02*
D03*
X021766Y020375D02*
D03*
X021855Y020509D02*
D03*
X021678Y020242D02*
D03*
X019221Y016561D02*
D03*
X019044Y016294D02*
D03*
X019132Y016428D02*
D03*
X018724Y016698D02*
D03*
X018635Y016565D02*
D03*
X018812Y016832D02*
D03*
D16*
X020145Y02076D02*
D03*
X020164Y02108D02*
D03*
X020155Y02092D02*
D03*
X020644Y02089D02*
D03*
X020654Y02105D02*
D03*
X020634Y020731D02*
D03*
X020347Y016313D02*
D03*
X020325Y015994D02*
D03*
X020336Y016153D02*
D03*
X019847Y016187D02*
D03*
X019836Y016028D02*
D03*
X019858Y016347D02*
D03*
D17*
X022218Y017513D02*
D03*
X022485Y017336D02*
D03*
X022352Y017424D02*
D03*
X02208Y017016D02*
D03*
X022214Y016928D02*
D03*
X021947Y017105D02*
D03*
X018268Y019562D02*
D03*
X018003Y019741D02*
D03*
X018135Y019652D02*
D03*
X01841Y020058D02*
D03*
X018277Y020148D02*
D03*
X018542Y019969D02*
D03*
D18*
X022041Y016864D02*
D03*
X022114Y016801D02*
D03*
D19*
X021443Y016663D02*
D03*
X021586Y016376D02*
D03*
X021514Y016519D02*
D03*
X021075Y016301D02*
D03*
X021147Y016158D02*
D03*
X021004Y016445D02*
D03*
X019047Y020413D02*
D03*
X018905Y020699D02*
D03*
X018976Y020556D02*
D03*
X019415Y020775D02*
D03*
X019343Y020918D02*
D03*
X019486Y020631D02*
D03*
D20*
X018259Y017099D02*
D03*
X018176Y017051D02*
D03*
X022243Y019978D02*
D03*
X022327Y020027D02*
D03*
D21*
X022491Y017527D02*
D03*
X022574Y017478D02*
D03*
X017997Y019521D02*
D03*
X017913Y019569D02*
D03*
D22*
X018368Y017343D02*
D03*
X018083Y017198D02*
D03*
X018225Y01727D02*
D03*
X018003Y017707D02*
D03*
X01786Y017634D02*
D03*
X018146Y01778D02*
D03*
D23*
X018539Y016769D02*
D03*
X018476Y016696D02*
D03*
D24*
X01925Y016286D02*
D03*
X01921Y016199D02*
D03*
D25*
X019658Y016145D02*
D03*
X019642Y01605D02*
D03*
D26*
X020926Y016173D02*
D03*
X020959Y016082D02*
D03*
X019585Y020909D02*
D03*
X019552Y020999D02*
D03*
D27*
X020525Y016133D02*
D03*
Y016037D02*
D03*
X019995Y020989D02*
D03*
Y021086D02*
D03*
X020593Y016846D02*
D03*
Y016749D02*
D03*
X020668Y016894D02*
D03*
Y016991D02*
D03*
D28*
X021693Y016549D02*
D03*
X021742Y016466D02*
D03*
X018804Y020536D02*
D03*
X018756Y020619D02*
D03*
D29*
X021601Y016731D02*
D03*
X021647Y016646D02*
D03*
D30*
X019435Y016313D02*
D03*
X0194Y016222D02*
D03*
D31*
X022601Y019222D02*
D03*
X022691Y019257D02*
D03*
D32*
X022525Y018946D02*
D03*
X02243Y018929D02*
D03*
D33*
X021995Y020257D02*
D03*
X022069Y020319D02*
D03*
D34*
X020859Y020921D02*
D03*
X020874Y021016D02*
D03*
D35*
X021069Y020761D02*
D03*
X021102Y020852D02*
D03*
D36*
X018797Y020413D02*
D03*
X018735Y020487D02*
D03*
D37*
X018462Y020232D02*
D03*
X018383Y020288D02*
D03*
D38*
X017858Y019116D02*
D03*
X017762Y019124D02*
D03*
D39*
X018003Y018148D02*
D03*
X017906Y018148D02*
D03*
D40*
X017878Y017869D02*
D03*
X017787Y017836D02*
D03*
D41*
X019965Y016973D02*
D03*
Y016877D02*
D03*
D42*
X019607Y016673D02*
D03*
X019703D02*
D03*
X022617Y018795D02*
D03*
X022713D02*
D03*
X017791Y018298D02*
D03*
X017694D02*
D03*
X020139Y0167D02*
D03*
X020236D02*
D03*
X019612Y016557D02*
D03*
X019708D02*
D03*
X020602Y016423D02*
D03*
X020698D02*
D03*
X020026Y016557D02*
D03*
X019929D02*
D03*
X019832Y016673D02*
D03*
X019928D02*
D03*
D43*
X021256Y020786D02*
D03*
X021304Y020869D02*
D03*
D44*
X020365Y016802D02*
D03*
X02043Y016802D02*
D03*
X020495D02*
D03*
X020495Y016993D02*
D03*
X02043D02*
D03*
X020365Y016993D02*
D03*
D45*
X01802Y018437D02*
D03*
X0177Y018458D02*
D03*
X01786Y018448D02*
D03*
X017891Y018937D02*
D03*
X017731Y018947D02*
D03*
X01805Y018927D02*
D03*
X022468Y018638D02*
D03*
X022787Y018618D02*
D03*
X022628Y018628D02*
D03*
X022597Y018139D02*
D03*
X022757Y018129D02*
D03*
X022437Y018149D02*
D03*
D46*
X017699Y018287D02*
X017705Y01823D01*
X017801Y018233D02*
X017906Y018148D01*
X022614Y018693D02*
Y018779D01*
X017795Y018289D02*
X017801Y018233D01*
X021566Y016555D02*
X021691D01*
X021549Y016538D02*
X021566Y016555D01*
X018732Y020482D02*
X018804Y020536D01*
X021103Y020852D02*
X021255Y020786D01*
X01925Y016286D02*
X019402Y01622D01*
X022081Y016758D02*
X022209Y016931D01*
X022131Y017386D02*
X02215Y017283D01*
X022131Y017386D02*
X022218Y017513D01*
X022277Y0173D02*
X022312Y017109D01*
X022277Y0173D02*
X022372Y017439D01*
X021388Y016449D02*
X021539Y016522D01*
X021323Y016266D02*
X021388Y016449D01*
X021305Y016596D02*
X021443Y016663D01*
X020376Y016153D02*
X020526Y016143D01*
X02127Y016498D02*
X021305Y016596D01*
X020947Y016077D02*
X021144Y016163D01*
X022727Y017916D02*
X022753Y018147D01*
X022456Y018485D02*
X022524Y018406D01*
X022401Y017498D02*
X022479Y017523D01*
X022376Y017459D02*
X022402Y017498D01*
X022456Y018485D02*
X022468Y018638D01*
X022625Y018483D02*
X022751Y018336D01*
X022625Y018483D02*
X022638Y018651D01*
X022246Y019856D02*
X022318Y019704D01*
X022502Y01964D01*
X022105Y01976D02*
X022171Y019621D01*
X02227Y019587D01*
X022637Y019387D02*
X022691Y019264D01*
X021888Y020476D02*
X022032Y020369D01*
X021397Y020426D02*
X021499Y020445D01*
X022224Y019886D02*
X022243Y019978D01*
X022224Y019886D02*
X022244Y019844D01*
X02127Y020513D02*
X021397Y020426D01*
X021482Y020572D02*
X021673Y020607D01*
X021344Y020667D02*
X021482Y020572D01*
X020132Y02093D02*
X0203Y020917D01*
X020447Y021044D01*
X020145Y02076D02*
X020298Y020749D01*
X021285Y020694D02*
X021324Y020668D01*
X02126Y020771D02*
X021285Y020694D01*
X020298Y020749D02*
X020377Y020816D01*
X020653Y021044D02*
X020867Y02102D01*
X019346Y020912D02*
X019543Y020998D01*
X019186Y020479D02*
X019221Y020577D01*
X019996Y02099D02*
X020068Y020925D01*
X020068Y020925D02*
X020115Y020922D01*
X019047Y020413D02*
X019186Y020479D01*
X019103Y020626D02*
X019168Y02081D01*
X018952Y020554D02*
X019103Y020626D01*
X017783Y017839D02*
X01787Y017639D01*
X018203Y017516D02*
X018302Y017482D01*
X017795Y018296D02*
X017856Y018364D01*
X017855Y018364D02*
X017859Y01841D01*
X018302Y017482D02*
X018368Y017343D01*
X017971Y017463D02*
X018155Y017399D01*
X018227Y017247D01*
X017848Y018395D02*
X017861Y018562D01*
X017735Y01871D02*
X017861Y018562D01*
X018018Y018408D02*
X01803Y018561D01*
X018085Y019548D02*
X018111Y019587D01*
X017997Y019519D02*
X018085Y019548D01*
X017962Y01864D02*
X01803Y018561D01*
X017744Y018997D02*
X017759Y01913D01*
X019215Y01637D02*
X019255Y016297D01*
X019176Y016396D02*
X019215Y01637D01*
X01925Y016287D02*
X019255Y016297D01*
X018482Y016692D02*
X01859Y016612D01*
X019008Y016623D02*
X01911Y016642D01*
X018266Y017103D02*
X018283Y017183D01*
X018262Y017224D02*
X018283Y017182D01*
X01911Y016642D02*
X019237Y016555D01*
X018833Y016461D02*
X019024Y016496D01*
X019163Y016401D01*
X018115Y019637D02*
X01821Y019775D01*
X018174Y019966D02*
X01821Y019775D01*
X018268Y019562D02*
X018355Y019689D01*
X018896Y020517D02*
X018938Y020537D01*
X018816Y020533D02*
X018896Y020516D01*
X018336Y019792D02*
X018355Y019689D01*
X018279Y020146D02*
X018405Y020317D01*
X019648Y016049D02*
X019781Y016034D01*
X020138Y016252D02*
X020217Y01632D01*
X019929Y016181D02*
X020015Y016255D01*
Y016252D02*
X020028Y01642D01*
X020182Y016895D02*
X020233D01*
X019994Y017082D02*
X020182Y016895D01*
X019515Y017082D02*
X019994D01*
X02043Y01642D02*
X020605D01*
X020365Y016485D02*
X02043Y01642D01*
X02088Y016602D02*
Y017D01*
X020701Y016424D02*
X02088Y016602D01*
X019795Y016192D02*
X019929Y016181D01*
X020217Y01632D02*
X02037Y016308D01*
X02Y016432D02*
X020065D01*
X020118Y016485D02*
X020365D01*
X020065Y016432D02*
X020118Y016485D01*
X019968Y016465D02*
X02Y016432D01*
X020068Y016025D02*
X020215Y016151D01*
X020382Y016138D01*
X019965Y016797D02*
X020178Y016797D01*
X019838Y016798D02*
X019965Y016797D01*
X019965Y016973D02*
Y017082D01*
X020538Y016677D02*
X020593D01*
X020625Y016645D01*
Y016623D02*
Y016645D01*
X020593Y016677D02*
Y016749D01*
X02059Y016845D02*
X020639Y016894D01*
X020668D01*
X020777Y016752D02*
Y016787D01*
X02067Y016894D02*
X020777Y016787D01*
X020495Y016721D02*
X020538Y016677D01*
X020625Y016623D02*
X020665Y016582D01*
X020482Y016518D02*
X020488Y016523D01*
Y016595D01*
X02043Y016652D02*
X020488Y016595D01*
X019706Y016552D02*
X01993D01*
Y016673D01*
X02014Y01666D02*
X020198Y016602D01*
X02014Y01666D02*
Y016699D01*
X020198Y016602D02*
X020288D01*
X020139Y0167D02*
X02014Y016699D01*
X020026Y01655D02*
X020138Y016662D01*
X020235Y0167D02*
Y01674D01*
X020235D01*
X020178Y016797D02*
X020235Y01674D01*
X020785Y017095D02*
X02088Y017D01*
X020407Y017095D02*
X020785D01*
X020365Y017052D02*
X020407Y017095D01*
X020365Y01699D02*
Y017052D01*
X019711Y016673D02*
X019832D01*
X019452Y01702D02*
X019515Y017082D01*
X019452Y016795D02*
Y01702D01*
Y016795D02*
X019573Y016675D01*
X019609D01*
X020235Y016895D02*
X02041D01*
X019755Y016838D02*
X019838Y016798D01*
X01966Y016465D02*
X019968D01*
X019609Y016506D02*
X01966Y016465D01*
X019609Y016506D02*
Y016552D01*
X02043Y016652D02*
Y0168D01*
X020495Y016721D02*
Y0168D01*
X020502Y01699D02*
X020612Y01699D01*
X020665Y016991D01*
X020365Y01668D02*
Y016773D01*
X020288Y016602D02*
X020365Y01668D01*
X02043Y016915D02*
Y01699D01*
X02041Y016895D02*
X02043Y016915D01*
X021645Y016645D02*
X021697Y016554D01*
X02149Y016688D02*
X021649Y016762D01*
D47*
X01785Y01795D02*
X018005Y018105D01*
Y018141D01*
X022525Y01895D02*
Y019038D01*
X022629Y019141D01*
X01785Y01795D02*
X017878Y017869D01*
X019516Y01628D02*
X019572Y016165D01*
X020849Y020924D02*
X020933Y020907D01*
X018801Y020415D02*
X018868Y020335D01*
X018875Y02025D01*
X020989Y020791D02*
X021069Y020761D01*
X020933Y020907D02*
X020989Y020791D01*
X019572Y016164D02*
X019656Y016148D01*
X019572Y016165D02*
X019572Y016164D01*
X019436Y016311D02*
X019516Y01628D01*
X018618Y020068D02*
X018715D01*
X018558Y020007D02*
X018618Y020068D01*
X02175Y017035D02*
X021921Y017062D01*
X021916Y017055D02*
X021921Y017062D01*
X021964Y016921D02*
X022041Y016866D01*
X020824Y016139D02*
X020905Y016167D01*
X022428Y018021D02*
X022494Y017939D01*
X022428Y018021D02*
X022435Y018091D01*
X022612Y017841D02*
X022628Y017924D01*
X022601Y019222D02*
X022629Y019141D01*
X02235Y01927D02*
X022379Y019205D01*
X022478Y019167D01*
X021784Y02017D02*
X021889Y020186D01*
X021727Y020211D02*
X021784Y02017D01*
X021931Y020313D02*
X021995Y020257D01*
X020692Y020728D02*
X020763Y02072D01*
X020845Y020787D01*
X019602Y020687D02*
X01964Y020785D01*
X019538Y020658D02*
X019602Y020687D01*
X019585Y020909D02*
X019666Y020936D01*
X017995Y017936D02*
X018094Y017898D01*
X018123Y017833D01*
X017858Y019121D02*
X017874Y019205D01*
X018051Y018955D02*
X018059Y019025D01*
X017992Y019107D02*
X018059Y019025D01*
X018618Y016882D02*
X018722Y016899D01*
X01878Y016857D01*
X018474Y016829D02*
X018539Y016773D01*
X01967Y016282D02*
X019752Y016349D01*
X019668Y01628D02*
X01967Y016282D01*
X019752Y016349D02*
X019823Y016341D01*
D48*
X021065Y016288D02*
X0212Y016355D01*
X019833Y016178D02*
X019983Y016169D01*
X022082Y017001D02*
X022166Y017126D01*
X022589Y018149D02*
X022599Y018299D01*
X022428Y019495D02*
X022494Y01936D01*
X021657Y020458D02*
X021782Y020374D01*
X020508Y020907D02*
X020658Y020897D01*
X017874Y018804D02*
X017884Y018954D01*
X018321Y019919D02*
X018405Y020044D01*
X018013Y017708D02*
X018079Y017573D01*
X018079Y017573D01*
X019286Y02072D02*
X019421Y020787D01*
X018733Y016695D02*
X018858Y016611D01*
X020876Y016383D02*
X021006Y016449D01*
X019706Y016675D02*
Y016709D01*
X01967Y016745D02*
X019706Y016709D01*
X019595Y016815D02*
X01967Y016745D01*
D49*
X019965Y016802D02*
Y01687D01*
D50*
X019595Y016815D02*
Y016968D01*
D51*
X021848Y016788D02*
D03*
X018427Y017012D02*
D03*
X022062Y020062D02*
D03*
X01864Y020285D02*
D03*
D52*
X017851Y01795D02*
D03*
X019573Y016165D02*
D03*
X018875Y02025D02*
D03*
X018715Y020068D02*
D03*
X02175Y017035D02*
D03*
X02193Y020312D02*
D03*
X021201Y016354D02*
D03*
X020824Y01614D02*
D03*
X019983Y016167D02*
D03*
X022166Y017126D02*
D03*
X022494Y017938D02*
D03*
X022611Y017841D02*
D03*
X022628Y019141D02*
D03*
X022477Y019167D02*
D03*
X0226Y018299D02*
D03*
X022429Y019496D02*
D03*
X021889Y020186D02*
D03*
X020845Y020786D02*
D03*
X021657Y020459D02*
D03*
X020508Y020908D02*
D03*
X019641Y020785D02*
D03*
X019666Y020936D02*
D03*
X017873Y018804D02*
D03*
X017996Y017936D02*
D03*
X020933Y020907D02*
D03*
X017875Y019205D02*
D03*
X017993Y019107D02*
D03*
X01832Y01992D02*
D03*
X018078Y017572D02*
D03*
X018618Y016882D02*
D03*
X018475Y016829D02*
D03*
X019286Y020721D02*
D03*
X018857Y01661D02*
D03*
X01967Y016282D02*
D03*
X019595Y016968D02*
D03*
X020482Y016518D02*
D03*
X021675Y016862D02*
D03*
D53*
X02215Y017283D02*
D03*
X022312Y017109D02*
D03*
X021323Y016266D02*
D03*
X02127Y016498D02*
D03*
X022524Y018406D02*
D03*
X022751Y018336D02*
D03*
X022502Y01964D02*
D03*
X02227Y019587D02*
D03*
X021499Y020445D02*
D03*
X021673Y020607D02*
D03*
X020447Y021044D02*
D03*
X020377Y020816D02*
D03*
X019221Y020577D02*
D03*
X019168Y02081D02*
D03*
X018203Y017516D02*
D03*
X017971Y017463D02*
D03*
X017735Y01871D02*
D03*
X017962Y01864D02*
D03*
X019008Y016623D02*
D03*
X018833Y016461D02*
D03*
X018174Y019966D02*
D03*
X018336Y019792D02*
D03*
X020138Y016252D02*
D03*
X020068Y016025D02*
D03*
D54*
X020875Y016382D02*
D03*
X020665Y016582D02*
D03*
D55*
X020777Y016755D02*
D03*
D56*
X019452Y016795D02*
D03*
X019755Y016838D02*
D03*
M02*
