%FSTAX42Y42*%
%MOMM*%
G71*
G01*
G75*
G04 Layer_Physical_Order=4*
G04 Layer_Color=16711680*
%ADD10C,0.35*%
%ADD11C,0.45*%
%ADD12C,0.25*%
G04:AMPARAMS|DCode=13|XSize=0.46mm|YSize=0.61mm|CornerRadius=0mm|HoleSize=0mm|Usage=FLASHONLY|Rotation=350.000|XOffset=0mm|YOffset=0mm|HoleType=Round|Shape=Rectangle|*
%AMROTATEDRECTD13*
4,1,4,-0.28,-0.26,-0.17,0.34,0.28,0.26,0.17,-0.34,-0.28,-0.26,0.0*
%
%ADD13ROTATEDRECTD13*%

G04:AMPARAMS|DCode=14|XSize=1mm|YSize=1.5mm|CornerRadius=0mm|HoleSize=0mm|Usage=FLASHONLY|Rotation=26.400|XOffset=0mm|YOffset=0mm|HoleType=Round|Shape=Rectangle|*
%AMROTATEDRECTD14*
4,1,4,-0.11,-0.89,-0.78,0.45,0.11,0.89,0.78,-0.45,-0.11,-0.89,0.0*
%
%ADD14ROTATEDRECTD14*%

G04:AMPARAMS|DCode=15|XSize=1mm|YSize=1.5mm|CornerRadius=0mm|HoleSize=0mm|Usage=FLASHONLY|Rotation=56.400|XOffset=0mm|YOffset=0mm|HoleType=Round|Shape=Rectangle|*
%AMROTATEDRECTD15*
4,1,4,0.35,-0.83,-0.90,-0.00,-0.35,0.83,0.90,0.00,0.35,-0.83,0.0*
%
%ADD15ROTATEDRECTD15*%

G04:AMPARAMS|DCode=16|XSize=1mm|YSize=1.5mm|CornerRadius=0mm|HoleSize=0mm|Usage=FLASHONLY|Rotation=86.500|XOffset=0mm|YOffset=0mm|HoleType=Round|Shape=Rectangle|*
%AMROTATEDRECTD16*
4,1,4,0.72,-0.54,-0.78,-0.45,-0.72,0.54,0.78,0.45,0.72,-0.54,0.0*
%
%ADD16ROTATEDRECTD16*%

G04:AMPARAMS|DCode=17|XSize=1mm|YSize=1.5mm|CornerRadius=0mm|HoleSize=0mm|Usage=FLASHONLY|Rotation=326.400|XOffset=0mm|YOffset=0mm|HoleType=Round|Shape=Rectangle|*
%AMROTATEDRECTD17*
4,1,4,-0.83,-0.35,-0.00,0.90,0.83,0.35,0.00,-0.90,-0.83,-0.35,0.0*
%
%ADD17ROTATEDRECTD17*%

G04:AMPARAMS|DCode=18|XSize=0.46mm|YSize=0.61mm|CornerRadius=0mm|HoleSize=0mm|Usage=FLASHONLY|Rotation=320.000|XOffset=0mm|YOffset=0mm|HoleType=Round|Shape=Rectangle|*
%AMROTATEDRECTD18*
4,1,4,-0.37,-0.09,0.02,0.38,0.37,0.09,-0.02,-0.38,-0.37,-0.09,0.0*
%
%ADD18ROTATEDRECTD18*%

G04:AMPARAMS|DCode=19|XSize=1mm|YSize=1.5mm|CornerRadius=0mm|HoleSize=0mm|Usage=FLASHONLY|Rotation=296.400|XOffset=0mm|YOffset=0mm|HoleType=Round|Shape=Rectangle|*
%AMROTATEDRECTD19*
4,1,4,-0.89,0.11,0.45,0.78,0.89,-0.11,-0.45,-0.78,-0.89,0.11,0.0*
%
%ADD19ROTATEDRECTD19*%

G04:AMPARAMS|DCode=20|XSize=0.46mm|YSize=0.51mm|CornerRadius=0mm|HoleSize=0mm|Usage=FLASHONLY|Rotation=30.000|XOffset=0mm|YOffset=0mm|HoleType=Round|Shape=Rectangle|*
%AMROTATEDRECTD20*
4,1,4,-0.07,-0.33,-0.32,0.11,0.07,0.33,0.32,-0.11,-0.07,-0.33,0.0*
%
%ADD20ROTATEDRECTD20*%

G04:AMPARAMS|DCode=21|XSize=0.46mm|YSize=0.51mm|CornerRadius=0mm|HoleSize=0mm|Usage=FLASHONLY|Rotation=150.000|XOffset=0mm|YOffset=0mm|HoleType=Round|Shape=Rectangle|*
%AMROTATEDRECTD21*
4,1,4,0.32,0.11,0.07,-0.33,-0.32,-0.11,-0.07,0.33,0.32,0.11,0.0*
%
%ADD21ROTATEDRECTD21*%

G04:AMPARAMS|DCode=22|XSize=1mm|YSize=1.5mm|CornerRadius=0mm|HoleSize=0mm|Usage=FLASHONLY|Rotation=207.000|XOffset=0mm|YOffset=0mm|HoleType=Round|Shape=Rectangle|*
%AMROTATEDRECTD22*
4,1,4,0.11,0.90,0.79,-0.44,-0.11,-0.90,-0.79,0.44,0.11,0.90,0.0*
%
%ADD22ROTATEDRECTD22*%

G04:AMPARAMS|DCode=23|XSize=0.46mm|YSize=0.61mm|CornerRadius=0mm|HoleSize=0mm|Usage=FLASHONLY|Rotation=230.000|XOffset=0mm|YOffset=0mm|HoleType=Round|Shape=Rectangle|*
%AMROTATEDRECTD23*
4,1,4,-0.09,0.37,0.38,-0.02,0.09,-0.37,-0.38,0.02,-0.09,0.37,0.0*
%
%ADD23ROTATEDRECTD23*%

G04:AMPARAMS|DCode=24|XSize=0.46mm|YSize=0.51mm|CornerRadius=0mm|HoleSize=0mm|Usage=FLASHONLY|Rotation=65.000|XOffset=0mm|YOffset=0mm|HoleType=Round|Shape=Rectangle|*
%AMROTATEDRECTD24*
4,1,4,0.13,-0.31,-0.33,-0.10,-0.13,0.31,0.33,0.10,0.13,-0.31,0.0*
%
%ADD24ROTATEDRECTD24*%

G04:AMPARAMS|DCode=25|XSize=0.46mm|YSize=0.61mm|CornerRadius=0mm|HoleSize=0mm|Usage=FLASHONLY|Rotation=260.000|XOffset=0mm|YOffset=0mm|HoleType=Round|Shape=Rectangle|*
%AMROTATEDRECTD25*
4,1,4,-0.26,0.28,0.34,0.17,0.26,-0.28,-0.34,-0.17,-0.26,0.28,0.0*
%
%ADD25ROTATEDRECTD25*%

G04:AMPARAMS|DCode=26|XSize=0.46mm|YSize=0.61mm|CornerRadius=0mm|HoleSize=0mm|Usage=FLASHONLY|Rotation=290.000|XOffset=0mm|YOffset=0mm|HoleType=Round|Shape=Rectangle|*
%AMROTATEDRECTD26*
4,1,4,-0.36,0.11,0.21,0.32,0.36,-0.11,-0.21,-0.32,-0.36,0.11,0.0*
%
%ADD26ROTATEDRECTD26*%

%ADD27R,0.51X0.46*%
G04:AMPARAMS|DCode=28|XSize=0.46mm|YSize=0.51mm|CornerRadius=0mm|HoleSize=0mm|Usage=FLASHONLY|Rotation=120.000|XOffset=0mm|YOffset=0mm|HoleType=Round|Shape=Rectangle|*
%AMROTATEDRECTD28*
4,1,4,0.33,-0.07,-0.11,-0.32,-0.33,0.07,0.11,0.32,0.33,-0.07,0.0*
%
%ADD28ROTATEDRECTD28*%

G04:AMPARAMS|DCode=29|XSize=0.46mm|YSize=0.61mm|CornerRadius=0mm|HoleSize=0mm|Usage=FLASHONLY|Rotation=298.000|XOffset=0mm|YOffset=0mm|HoleType=Round|Shape=Rectangle|*
%AMROTATEDRECTD29*
4,1,4,-0.38,0.06,0.16,0.34,0.38,-0.06,-0.16,-0.34,-0.38,0.06,0.0*
%
%ADD29ROTATEDRECTD29*%

G04:AMPARAMS|DCode=30|XSize=0.46mm|YSize=0.61mm|CornerRadius=0mm|HoleSize=0mm|Usage=FLASHONLY|Rotation=249.000|XOffset=0mm|YOffset=0mm|HoleType=Round|Shape=Rectangle|*
%AMROTATEDRECTD30*
4,1,4,-0.20,0.32,0.37,0.10,0.20,-0.32,-0.37,-0.10,-0.20,0.32,0.0*
%
%ADD30ROTATEDRECTD30*%

G04:AMPARAMS|DCode=31|XSize=0.46mm|YSize=0.61mm|CornerRadius=0mm|HoleSize=0mm|Usage=FLASHONLY|Rotation=21.000|XOffset=0mm|YOffset=0mm|HoleType=Round|Shape=Rectangle|*
%AMROTATEDRECTD31*
4,1,4,-0.10,-0.37,-0.32,0.20,0.10,0.37,0.32,-0.20,-0.10,-0.37,0.0*
%
%ADD31ROTATEDRECTD31*%

G04:AMPARAMS|DCode=32|XSize=0.46mm|YSize=0.61mm|CornerRadius=0mm|HoleSize=0mm|Usage=FLASHONLY|Rotation=190.000|XOffset=0mm|YOffset=0mm|HoleType=Round|Shape=Rectangle|*
%AMROTATEDRECTD32*
4,1,4,0.17,0.34,0.28,-0.26,-0.17,-0.34,-0.28,0.26,0.17,0.34,0.0*
%
%ADD32ROTATEDRECTD32*%

G04:AMPARAMS|DCode=33|XSize=0.46mm|YSize=0.61mm|CornerRadius=0mm|HoleSize=0mm|Usage=FLASHONLY|Rotation=40.000|XOffset=0mm|YOffset=0mm|HoleType=Round|Shape=Rectangle|*
%AMROTATEDRECTD33*
4,1,4,0.02,-0.38,-0.37,0.09,-0.02,0.38,0.37,-0.09,0.02,-0.38,0.0*
%
%ADD33ROTATEDRECTD33*%

G04:AMPARAMS|DCode=34|XSize=0.46mm|YSize=0.61mm|CornerRadius=0mm|HoleSize=0mm|Usage=FLASHONLY|Rotation=81.000|XOffset=0mm|YOffset=0mm|HoleType=Round|Shape=Rectangle|*
%AMROTATEDRECTD34*
4,1,4,0.27,-0.27,-0.34,-0.18,-0.27,0.27,0.34,0.18,0.27,-0.27,0.0*
%
%ADD34ROTATEDRECTD34*%

G04:AMPARAMS|DCode=35|XSize=0.46mm|YSize=0.61mm|CornerRadius=0mm|HoleSize=0mm|Usage=FLASHONLY|Rotation=70.000|XOffset=0mm|YOffset=0mm|HoleType=Round|Shape=Rectangle|*
%AMROTATEDRECTD35*
4,1,4,0.21,-0.32,-0.36,-0.11,-0.21,0.32,0.36,0.11,0.21,-0.32,0.0*
%
%ADD35ROTATEDRECTD35*%

G04:AMPARAMS|DCode=36|XSize=0.46mm|YSize=0.61mm|CornerRadius=0mm|HoleSize=0mm|Usage=FLASHONLY|Rotation=130.000|XOffset=0mm|YOffset=0mm|HoleType=Round|Shape=Rectangle|*
%AMROTATEDRECTD36*
4,1,4,0.38,0.02,-0.09,-0.37,-0.38,-0.02,0.09,0.37,0.38,0.02,0.0*
%
%ADD36ROTATEDRECTD36*%

G04:AMPARAMS|DCode=37|XSize=0.46mm|YSize=0.61mm|CornerRadius=0mm|HoleSize=0mm|Usage=FLASHONLY|Rotation=145.000|XOffset=0mm|YOffset=0mm|HoleType=Round|Shape=Rectangle|*
%AMROTATEDRECTD37*
4,1,4,0.36,0.12,0.01,-0.38,-0.36,-0.12,-0.01,0.38,0.36,0.12,0.0*
%
%ADD37ROTATEDRECTD37*%

G04:AMPARAMS|DCode=38|XSize=0.46mm|YSize=0.61mm|CornerRadius=0mm|HoleSize=0mm|Usage=FLASHONLY|Rotation=175.000|XOffset=0mm|YOffset=0mm|HoleType=Round|Shape=Rectangle|*
%AMROTATEDRECTD38*
4,1,4,0.25,0.28,0.20,-0.32,-0.25,-0.28,-0.20,0.32,0.25,0.28,0.0*
%
%ADD38ROTATEDRECTD38*%

%ADD39R,0.46X0.61*%
G04:AMPARAMS|DCode=40|XSize=0.46mm|YSize=0.61mm|CornerRadius=0mm|HoleSize=0mm|Usage=FLASHONLY|Rotation=200.000|XOffset=0mm|YOffset=0mm|HoleType=Round|Shape=Rectangle|*
%AMROTATEDRECTD40*
4,1,4,0.11,0.36,0.32,-0.21,-0.11,-0.36,-0.32,0.21,0.11,0.36,0.0*
%
%ADD40ROTATEDRECTD40*%

%ADD41R,0.61X0.46*%
%ADD42R,0.46X0.51*%
G04:AMPARAMS|DCode=43|XSize=0.46mm|YSize=0.51mm|CornerRadius=0mm|HoleSize=0mm|Usage=FLASHONLY|Rotation=240.000|XOffset=0mm|YOffset=0mm|HoleType=Round|Shape=Rectangle|*
%AMROTATEDRECTD43*
4,1,4,-0.11,0.32,0.33,0.07,0.11,-0.32,-0.33,-0.07,-0.11,0.32,0.0*
%
%ADD43ROTATEDRECTD43*%

%ADD44R,0.35X0.85*%
G04:AMPARAMS|DCode=45|XSize=1mm|YSize=1.5mm|CornerRadius=0mm|HoleSize=0mm|Usage=FLASHONLY|Rotation=176.400|XOffset=0mm|YOffset=0mm|HoleType=Round|Shape=Rectangle|*
%AMROTATEDRECTD45*
4,1,4,0.55,0.72,0.45,-0.78,-0.55,-0.72,-0.45,0.78,0.55,0.72,0.0*
%
%ADD45ROTATEDRECTD45*%

%ADD46C,0.40*%
%ADD47C,0.30*%
%ADD48C,0.50*%
%ADD49C,0.51*%
%ADD50C,0.60*%
%ADD51C,1.20*%
%ADD52C,0.60*%
%ADD53C,0.87*%
%ADD54C,0.50*%
%ADD55C,0.70*%
%ADD56C,1.27*%
%ADD57R,1.40X4.52*%
D11*
X02175Y017035D02*
G03*
X021494Y016658I000017J-000287D01*
G01*
X0212Y016353D02*
G03*
X021492Y016658I-000034J000325D01*
G01*
X022167Y017126D02*
G03*
X022314Y017606I-000336J000365D01*
G01*
X022494Y017938D02*
G03*
X022314Y017606I000086J-000262D01*
G01*
X022477Y019167D02*
G03*
X022488Y018788I000206J-000184D01*
G01*
X022601Y018299D02*
G03*
X022488Y018788I-000278J000193D01*
G01*
X022429Y019496D02*
G03*
X022087Y019863I-000464J-00009D01*
G01*
X021889Y020186D02*
G03*
X022087Y019863I000189J-000106D01*
G01*
X020845Y020786D02*
G03*
X021178Y020606I000323J000198D01*
G01*
X021658Y02046D02*
G03*
X021178Y020606I-000347J-000278D01*
G01*
X020508Y020909D02*
G03*
X020019Y020795I-000157J-000435D01*
G01*
X019641Y020785D02*
G03*
X020019Y020795I000184J000195D01*
G01*
X019286Y020721D02*
G03*
X018785Y020202I-00006J-000443D01*
G01*
X018715Y020068D02*
G03*
X018785Y020202I-0001J000138D01*
G01*
X017993Y019107D02*
G03*
X018173Y01944I-000221J000335D01*
G01*
X018319Y01992D02*
G03*
X018173Y01944I00017J-000314D01*
G01*
X017872Y018804D02*
G03*
X017986Y018315I000389J-000168D01*
G01*
X017996Y017936D02*
G03*
X017986Y018315I-000218J000183D01*
G01*
X018618Y016882D02*
G03*
X01842Y017205I-000233J000079D01*
G01*
X018077Y017572D02*
G03*
X01842Y017205I000355J-000012D01*
G01*
D46*
X020665Y01652D02*
X020802Y016382D01*
X020875D01*
X020665Y01652D02*
Y016582D01*
D47*
X018075Y017575D02*
X018077Y017572D01*
D48*
X01927Y016482D02*
X01947Y016282D01*
X018987Y016482D02*
X01927D01*
X018858Y016611D02*
X018987Y016482D01*
X01947Y016282D02*
X01967D01*
D49*
X01975Y016685D02*
Y016832D01*
X019755Y016838D01*
X01975Y016685D02*
X019827Y016607D01*
X019917D01*
X019946Y016636D01*
Y016888D01*
D50*
X020174Y016384D02*
X020348Y016557D01*
X019641Y016385D02*
X020174Y016384D01*
X020348Y016557D02*
X020348Y016888D01*
X01928Y016748D02*
X019641Y016385D01*
X01928Y016748D02*
X01928Y016933D01*
X020649Y016888D02*
X020777Y016755D01*
X020547Y016888D02*
X020649D01*
X019535Y017028D02*
X019595Y016968D01*
X019375Y017028D02*
X019535Y017028D01*
X01928Y016933D02*
X019375Y017028D01*
X019448Y016788D02*
X019727Y016507D01*
X0201D01*
X020144Y016551D01*
Y016888D01*
D51*
X021848Y016788D02*
D03*
X018427Y017012D02*
D03*
X022062Y020062D02*
D03*
X01864Y020285D02*
D03*
D52*
X017851Y01795D02*
D03*
X019573Y016165D02*
D03*
X018875Y02025D02*
D03*
X018715Y020068D02*
D03*
X02175Y017035D02*
D03*
X02193Y020312D02*
D03*
X021201Y016354D02*
D03*
X020824Y01614D02*
D03*
X019983Y016167D02*
D03*
X022166Y017126D02*
D03*
X022494Y017938D02*
D03*
X022611Y017841D02*
D03*
X022628Y019141D02*
D03*
X022477Y019167D02*
D03*
X0226Y018299D02*
D03*
X022429Y019496D02*
D03*
X021889Y020186D02*
D03*
X020845Y020786D02*
D03*
X021657Y020459D02*
D03*
X020508Y020908D02*
D03*
X019641Y020785D02*
D03*
X019666Y020936D02*
D03*
X017873Y018804D02*
D03*
X017996Y017936D02*
D03*
X020933Y020907D02*
D03*
X017875Y019205D02*
D03*
X017993Y019107D02*
D03*
X01832Y01992D02*
D03*
X018078Y017572D02*
D03*
X018618Y016882D02*
D03*
X018475Y016829D02*
D03*
X019286Y020721D02*
D03*
X018857Y01661D02*
D03*
X01967Y016282D02*
D03*
X019595Y016968D02*
D03*
X020482Y016518D02*
D03*
X021675Y016862D02*
D03*
D53*
X02215Y017283D02*
D03*
X022312Y017109D02*
D03*
X021323Y016266D02*
D03*
X02127Y016498D02*
D03*
X022524Y018406D02*
D03*
X022751Y018336D02*
D03*
X022502Y01964D02*
D03*
X02227Y019587D02*
D03*
X021499Y020445D02*
D03*
X021673Y020607D02*
D03*
X020447Y021044D02*
D03*
X020377Y020816D02*
D03*
X019221Y020577D02*
D03*
X019168Y02081D02*
D03*
X018203Y017516D02*
D03*
X017971Y017463D02*
D03*
X017735Y01871D02*
D03*
X017962Y01864D02*
D03*
X019008Y016623D02*
D03*
X018833Y016461D02*
D03*
X018174Y019966D02*
D03*
X018336Y019792D02*
D03*
X020138Y016252D02*
D03*
X020068Y016025D02*
D03*
D54*
X020875Y016382D02*
D03*
X020665Y016582D02*
D03*
D55*
X020777Y016755D02*
D03*
D56*
X019452Y016795D02*
D03*
X019755Y016838D02*
D03*
D57*
X019946Y016888D02*
D03*
X020144Y016888D02*
D03*
X020348Y016888D02*
D03*
X020547D02*
D03*
M02*
