%FSTAX42Y42*%
%MOMM*%
G71*
G01*
G75*
%ADD10C,0.35*%
%ADD11C,0.45*%
%ADD12C,0.25*%
G04:AMPARAMS|DCode=13|XSize=0.46mm|YSize=0.61mm|CornerRadius=0mm|HoleSize=0mm|Usage=FLASHONLY|Rotation=350.000|XOffset=0mm|YOffset=0mm|HoleType=Round|Shape=Rectangle|*
%AMROTATEDRECTD13*
4,1,4,-0.28,-0.26,-0.17,0.34,0.28,0.26,0.17,-0.34,-0.28,-0.26,0.0*
%
%ADD13ROTATEDRECTD13*%

G04:AMPARAMS|DCode=14|XSize=1mm|YSize=1.5mm|CornerRadius=0mm|HoleSize=0mm|Usage=FLASHONLY|Rotation=26.400|XOffset=0mm|YOffset=0mm|HoleType=Round|Shape=Rectangle|*
%AMROTATEDRECTD14*
4,1,4,-0.11,-0.89,-0.78,0.45,0.11,0.89,0.78,-0.45,-0.11,-0.89,0.0*
%
%ADD14ROTATEDRECTD14*%

G04:AMPARAMS|DCode=15|XSize=1mm|YSize=1.5mm|CornerRadius=0mm|HoleSize=0mm|Usage=FLASHONLY|Rotation=56.400|XOffset=0mm|YOffset=0mm|HoleType=Round|Shape=Rectangle|*
%AMROTATEDRECTD15*
4,1,4,0.35,-0.83,-0.90,-0.00,-0.35,0.83,0.90,0.00,0.35,-0.83,0.0*
%
%ADD15ROTATEDRECTD15*%

G04:AMPARAMS|DCode=16|XSize=1mm|YSize=1.5mm|CornerRadius=0mm|HoleSize=0mm|Usage=FLASHONLY|Rotation=86.500|XOffset=0mm|YOffset=0mm|HoleType=Round|Shape=Rectangle|*
%AMROTATEDRECTD16*
4,1,4,0.72,-0.54,-0.78,-0.45,-0.72,0.54,0.78,0.45,0.72,-0.54,0.0*
%
%ADD16ROTATEDRECTD16*%

G04:AMPARAMS|DCode=17|XSize=1mm|YSize=1.5mm|CornerRadius=0mm|HoleSize=0mm|Usage=FLASHONLY|Rotation=326.400|XOffset=0mm|YOffset=0mm|HoleType=Round|Shape=Rectangle|*
%AMROTATEDRECTD17*
4,1,4,-0.83,-0.35,-0.00,0.90,0.83,0.35,0.00,-0.90,-0.83,-0.35,0.0*
%
%ADD17ROTATEDRECTD17*%

G04:AMPARAMS|DCode=18|XSize=0.46mm|YSize=0.61mm|CornerRadius=0mm|HoleSize=0mm|Usage=FLASHONLY|Rotation=320.000|XOffset=0mm|YOffset=0mm|HoleType=Round|Shape=Rectangle|*
%AMROTATEDRECTD18*
4,1,4,-0.37,-0.09,0.02,0.38,0.37,0.09,-0.02,-0.38,-0.37,-0.09,0.0*
%
%ADD18ROTATEDRECTD18*%

G04:AMPARAMS|DCode=19|XSize=1mm|YSize=1.5mm|CornerRadius=0mm|HoleSize=0mm|Usage=FLASHONLY|Rotation=296.400|XOffset=0mm|YOffset=0mm|HoleType=Round|Shape=Rectangle|*
%AMROTATEDRECTD19*
4,1,4,-0.89,0.11,0.45,0.78,0.89,-0.11,-0.45,-0.78,-0.89,0.11,0.0*
%
%ADD19ROTATEDRECTD19*%

G04:AMPARAMS|DCode=20|XSize=0.46mm|YSize=0.51mm|CornerRadius=0mm|HoleSize=0mm|Usage=FLASHONLY|Rotation=30.000|XOffset=0mm|YOffset=0mm|HoleType=Round|Shape=Rectangle|*
%AMROTATEDRECTD20*
4,1,4,-0.07,-0.33,-0.32,0.11,0.07,0.33,0.32,-0.11,-0.07,-0.33,0.0*
%
%ADD20ROTATEDRECTD20*%

G04:AMPARAMS|DCode=21|XSize=0.46mm|YSize=0.51mm|CornerRadius=0mm|HoleSize=0mm|Usage=FLASHONLY|Rotation=150.000|XOffset=0mm|YOffset=0mm|HoleType=Round|Shape=Rectangle|*
%AMROTATEDRECTD21*
4,1,4,0.32,0.11,0.07,-0.33,-0.32,-0.11,-0.07,0.33,0.32,0.11,0.0*
%
%ADD21ROTATEDRECTD21*%

G04:AMPARAMS|DCode=22|XSize=1mm|YSize=1.5mm|CornerRadius=0mm|HoleSize=0mm|Usage=FLASHONLY|Rotation=207.000|XOffset=0mm|YOffset=0mm|HoleType=Round|Shape=Rectangle|*
%AMROTATEDRECTD22*
4,1,4,0.11,0.90,0.79,-0.44,-0.11,-0.90,-0.79,0.44,0.11,0.90,0.0*
%
%ADD22ROTATEDRECTD22*%

G04:AMPARAMS|DCode=23|XSize=0.46mm|YSize=0.61mm|CornerRadius=0mm|HoleSize=0mm|Usage=FLASHONLY|Rotation=230.000|XOffset=0mm|YOffset=0mm|HoleType=Round|Shape=Rectangle|*
%AMROTATEDRECTD23*
4,1,4,-0.09,0.37,0.38,-0.02,0.09,-0.37,-0.38,0.02,-0.09,0.37,0.0*
%
%ADD23ROTATEDRECTD23*%

G04:AMPARAMS|DCode=24|XSize=0.46mm|YSize=0.51mm|CornerRadius=0mm|HoleSize=0mm|Usage=FLASHONLY|Rotation=65.000|XOffset=0mm|YOffset=0mm|HoleType=Round|Shape=Rectangle|*
%AMROTATEDRECTD24*
4,1,4,0.13,-0.31,-0.33,-0.10,-0.13,0.31,0.33,0.10,0.13,-0.31,0.0*
%
%ADD24ROTATEDRECTD24*%

G04:AMPARAMS|DCode=25|XSize=0.46mm|YSize=0.61mm|CornerRadius=0mm|HoleSize=0mm|Usage=FLASHONLY|Rotation=260.000|XOffset=0mm|YOffset=0mm|HoleType=Round|Shape=Rectangle|*
%AMROTATEDRECTD25*
4,1,4,-0.26,0.28,0.34,0.17,0.26,-0.28,-0.34,-0.17,-0.26,0.28,0.0*
%
%ADD25ROTATEDRECTD25*%

G04:AMPARAMS|DCode=26|XSize=0.46mm|YSize=0.61mm|CornerRadius=0mm|HoleSize=0mm|Usage=FLASHONLY|Rotation=290.000|XOffset=0mm|YOffset=0mm|HoleType=Round|Shape=Rectangle|*
%AMROTATEDRECTD26*
4,1,4,-0.36,0.11,0.21,0.32,0.36,-0.11,-0.21,-0.32,-0.36,0.11,0.0*
%
%ADD26ROTATEDRECTD26*%

%ADD27R,0.51X0.46*%
G04:AMPARAMS|DCode=28|XSize=0.46mm|YSize=0.51mm|CornerRadius=0mm|HoleSize=0mm|Usage=FLASHONLY|Rotation=120.000|XOffset=0mm|YOffset=0mm|HoleType=Round|Shape=Rectangle|*
%AMROTATEDRECTD28*
4,1,4,0.33,-0.07,-0.11,-0.32,-0.33,0.07,0.11,0.32,0.33,-0.07,0.0*
%
%ADD28ROTATEDRECTD28*%

G04:AMPARAMS|DCode=29|XSize=0.46mm|YSize=0.61mm|CornerRadius=0mm|HoleSize=0mm|Usage=FLASHONLY|Rotation=298.000|XOffset=0mm|YOffset=0mm|HoleType=Round|Shape=Rectangle|*
%AMROTATEDRECTD29*
4,1,4,-0.38,0.06,0.16,0.34,0.38,-0.06,-0.16,-0.34,-0.38,0.06,0.0*
%
%ADD29ROTATEDRECTD29*%

G04:AMPARAMS|DCode=30|XSize=0.46mm|YSize=0.61mm|CornerRadius=0mm|HoleSize=0mm|Usage=FLASHONLY|Rotation=249.000|XOffset=0mm|YOffset=0mm|HoleType=Round|Shape=Rectangle|*
%AMROTATEDRECTD30*
4,1,4,-0.20,0.32,0.37,0.10,0.20,-0.32,-0.37,-0.10,-0.20,0.32,0.0*
%
%ADD30ROTATEDRECTD30*%

G04:AMPARAMS|DCode=31|XSize=0.46mm|YSize=0.61mm|CornerRadius=0mm|HoleSize=0mm|Usage=FLASHONLY|Rotation=21.000|XOffset=0mm|YOffset=0mm|HoleType=Round|Shape=Rectangle|*
%AMROTATEDRECTD31*
4,1,4,-0.10,-0.37,-0.32,0.20,0.10,0.37,0.32,-0.20,-0.10,-0.37,0.0*
%
%ADD31ROTATEDRECTD31*%

G04:AMPARAMS|DCode=32|XSize=0.46mm|YSize=0.61mm|CornerRadius=0mm|HoleSize=0mm|Usage=FLASHONLY|Rotation=190.000|XOffset=0mm|YOffset=0mm|HoleType=Round|Shape=Rectangle|*
%AMROTATEDRECTD32*
4,1,4,0.17,0.34,0.28,-0.26,-0.17,-0.34,-0.28,0.26,0.17,0.34,0.0*
%
%ADD32ROTATEDRECTD32*%

G04:AMPARAMS|DCode=33|XSize=0.46mm|YSize=0.61mm|CornerRadius=0mm|HoleSize=0mm|Usage=FLASHONLY|Rotation=40.000|XOffset=0mm|YOffset=0mm|HoleType=Round|Shape=Rectangle|*
%AMROTATEDRECTD33*
4,1,4,0.02,-0.38,-0.37,0.09,-0.02,0.38,0.37,-0.09,0.02,-0.38,0.0*
%
%ADD33ROTATEDRECTD33*%

G04:AMPARAMS|DCode=34|XSize=0.46mm|YSize=0.61mm|CornerRadius=0mm|HoleSize=0mm|Usage=FLASHONLY|Rotation=81.000|XOffset=0mm|YOffset=0mm|HoleType=Round|Shape=Rectangle|*
%AMROTATEDRECTD34*
4,1,4,0.27,-0.27,-0.34,-0.18,-0.27,0.27,0.34,0.18,0.27,-0.27,0.0*
%
%ADD34ROTATEDRECTD34*%

G04:AMPARAMS|DCode=35|XSize=0.46mm|YSize=0.61mm|CornerRadius=0mm|HoleSize=0mm|Usage=FLASHONLY|Rotation=70.000|XOffset=0mm|YOffset=0mm|HoleType=Round|Shape=Rectangle|*
%AMROTATEDRECTD35*
4,1,4,0.21,-0.32,-0.36,-0.11,-0.21,0.32,0.36,0.11,0.21,-0.32,0.0*
%
%ADD35ROTATEDRECTD35*%

G04:AMPARAMS|DCode=36|XSize=0.46mm|YSize=0.61mm|CornerRadius=0mm|HoleSize=0mm|Usage=FLASHONLY|Rotation=130.000|XOffset=0mm|YOffset=0mm|HoleType=Round|Shape=Rectangle|*
%AMROTATEDRECTD36*
4,1,4,0.38,0.02,-0.09,-0.37,-0.38,-0.02,0.09,0.37,0.38,0.02,0.0*
%
%ADD36ROTATEDRECTD36*%

G04:AMPARAMS|DCode=37|XSize=0.46mm|YSize=0.61mm|CornerRadius=0mm|HoleSize=0mm|Usage=FLASHONLY|Rotation=145.000|XOffset=0mm|YOffset=0mm|HoleType=Round|Shape=Rectangle|*
%AMROTATEDRECTD37*
4,1,4,0.36,0.12,0.01,-0.38,-0.36,-0.12,-0.01,0.38,0.36,0.12,0.0*
%
%ADD37ROTATEDRECTD37*%

G04:AMPARAMS|DCode=38|XSize=0.46mm|YSize=0.61mm|CornerRadius=0mm|HoleSize=0mm|Usage=FLASHONLY|Rotation=175.000|XOffset=0mm|YOffset=0mm|HoleType=Round|Shape=Rectangle|*
%AMROTATEDRECTD38*
4,1,4,0.25,0.28,0.20,-0.32,-0.25,-0.28,-0.20,0.32,0.25,0.28,0.0*
%
%ADD38ROTATEDRECTD38*%

%ADD39R,0.46X0.61*%
G04:AMPARAMS|DCode=40|XSize=0.46mm|YSize=0.61mm|CornerRadius=0mm|HoleSize=0mm|Usage=FLASHONLY|Rotation=200.000|XOffset=0mm|YOffset=0mm|HoleType=Round|Shape=Rectangle|*
%AMROTATEDRECTD40*
4,1,4,0.11,0.36,0.32,-0.21,-0.11,-0.36,-0.32,0.21,0.11,0.36,0.0*
%
%ADD40ROTATEDRECTD40*%

%ADD41R,0.61X0.46*%
%ADD42R,0.46X0.51*%
G04:AMPARAMS|DCode=43|XSize=0.46mm|YSize=0.51mm|CornerRadius=0mm|HoleSize=0mm|Usage=FLASHONLY|Rotation=240.000|XOffset=0mm|YOffset=0mm|HoleType=Round|Shape=Rectangle|*
%AMROTATEDRECTD43*
4,1,4,-0.11,0.32,0.33,0.07,0.11,-0.32,-0.33,-0.07,-0.11,0.32,0.0*
%
%ADD43ROTATEDRECTD43*%

%ADD44R,0.35X0.85*%
G04:AMPARAMS|DCode=45|XSize=1mm|YSize=1.5mm|CornerRadius=0mm|HoleSize=0mm|Usage=FLASHONLY|Rotation=176.400|XOffset=0mm|YOffset=0mm|HoleType=Round|Shape=Rectangle|*
%AMROTATEDRECTD45*
4,1,4,0.55,0.72,0.45,-0.78,-0.55,-0.72,-0.45,0.78,0.55,0.72,0.0*
%
%ADD45ROTATEDRECTD45*%

%ADD46C,0.40*%
%ADD47C,0.30*%
%ADD48C,0.50*%
%ADD49C,0.51*%
%ADD50C,0.60*%
%ADD51C,1.20*%
%ADD52C,0.60*%
%ADD53C,0.87*%
%ADD54C,0.50*%
%ADD55C,0.70*%
%ADD56C,1.27*%
%ADD57R,1.40X4.52*%
%ADD58C,0.25*%
%ADD59C,0.25*%
%ADD60C,0.10*%
%ADD61C,0.04*%
%ADD62C,0.20*%
%ADD63C,0.15*%
G36*
X02082Y016834D02*
X020831Y016826D01*
X020839Y016815D01*
X020841Y016802D01*
X020841D01*
X020841Y016736D01*
X020839Y016723D01*
X020831Y016712D01*
X02082Y016704D01*
X020807Y016702D01*
Y016702D01*
X020707D01*
X020772Y016719D01*
D01*
X020707Y016702D01*
X020707Y016802D01*
X020709Y016815D01*
X020717Y016826D01*
X020728Y016834D01*
X020741Y016836D01*
Y016836D01*
X020807Y016836D01*
X02082Y016834D01*
D02*
G37*
%LPC*%
G36*
X020774Y016719D02*
X020772Y016719D01*
X020774Y016718D01*
X020774Y016719D01*
D02*
G37*
G36*
X020774Y01682D02*
X020774Y016819D01*
Y01682D01*
X020755Y016816D01*
X020738Y016805D01*
X020727Y016788D01*
X020723Y016769D01*
X020724Y016769D01*
X020723D01*
X020727Y01675D01*
X020738Y016733D01*
X020755Y016722D01*
X020772Y016719D01*
X020774Y016719D01*
D01*
X020774D01*
Y016718D01*
X020793Y016722D01*
X02081Y016733D01*
X020821Y01675D01*
X020825Y016769D01*
X020824Y016769D01*
X020825D01*
X020821Y016788D01*
X02081Y016805D01*
X020793Y016816D01*
X020774Y01682D01*
D02*
G37*
%LPD*%
G36*
X020807Y016769D02*
Y016769D01*
X020808D01*
X020805Y016756D01*
X020798Y016745D01*
X020787Y016738D01*
X020774Y016735D01*
X020761Y016738D01*
X02075Y016745D01*
X020743Y016756D01*
X02074Y016769D01*
X020807Y016769D01*
D02*
G37*
D58*
X022331Y019157D02*
G03*
X022331Y019157I-000012J0D01*
G01*
X021743Y020112D02*
G03*
X021743Y020112I-000012J0D01*
G01*
X020758Y020644D02*
G03*
X020758Y020644I-000012J0D01*
G01*
X020877Y016464D02*
G03*
X020877Y016464I-000012J0D01*
G01*
X018772Y016962D02*
G03*
X018772Y016962I-000012J0D01*
G01*
X019638Y020612D02*
G03*
X019638Y020612I-000012J0D01*
G01*
X018176Y017919D02*
G03*
X018176Y017919I-000012J0D01*
G01*
X019761Y016435D02*
G03*
X019761Y016435I-000012J0D01*
G01*
X020305Y016802D02*
G03*
X020305Y016802I-000012J0D01*
G01*
X018138Y01905D02*
G03*
X018138Y01905I-000001J-000012D01*
G01*
X022363Y018038D02*
G03*
X022363Y018038I-000012J0D01*
G01*
X018686Y02002D02*
G03*
X018686Y02002I-000012J0D01*
G01*
D59*
X02181Y017042D02*
D03*
D60*
X022327Y019565D02*
X022417Y01961D01*
X02235Y019632D02*
X022394Y019543D01*
X021535Y020469D02*
X02159Y020553D01*
X021521Y020539D02*
X021604Y020483D01*
X020396Y020855D02*
X020402Y020955D01*
X020349Y020908D02*
X020449Y020902D01*
X022174Y017248D02*
X022258Y017192D01*
X022188Y017178D02*
X022244Y017262D01*
X021273Y016455D02*
X021317Y016365D01*
X02125Y016388D02*
X02134Y016433D01*
X0189Y016521D02*
X018956Y016605D01*
X018886Y016591D02*
X01897Y016536D01*
X019173Y02071D02*
X019218Y020621D01*
X019151Y020643D02*
X01924Y020688D01*
X01807Y017466D02*
X018159Y017511D01*
X018092Y017533D02*
X018137Y017444D01*
X020088Y016121D02*
X020095Y01622D01*
X020042Y016174D02*
X020141Y016167D01*
X017826Y018695D02*
X017925Y018689D01*
X017872Y018642D02*
X017879Y018742D01*
X022562Y018387D02*
X022662Y018381D01*
X022609Y018334D02*
X022615Y018434D01*
X018231Y019883D02*
X018314Y019827D01*
X018245Y019814D02*
X0183Y019896D01*
X021466Y01627D02*
X021496Y016285D01*
X0215Y016294D01*
X021494Y016306D01*
X021485Y016309D01*
X021455Y016294D01*
X021474Y016348D02*
X021485Y016324D01*
X02145Y016336D01*
X021444Y016333D01*
X021441Y016324D01*
X021446Y016312D01*
X021455Y016309D01*
X021468Y01636D02*
X021462Y016372D01*
X021465Y016366D01*
X021429Y016348D01*
X021438Y016345D01*
X021442Y016414D02*
X021454Y01639D01*
X021418Y016402D01*
X021412Y016399D01*
X021409Y016391D01*
X021415Y016379D01*
X021424Y016375D01*
X021978Y016909D02*
X021996Y016937D01*
X021994Y016946D01*
X021983Y016954D01*
X021974Y016952D01*
X021956Y016924D01*
X021945Y01698D02*
X021967Y016965D01*
X02193Y016958D01*
X021926Y016952D01*
X021928Y016943D01*
X021939Y016936D01*
X021948Y016937D01*
X021934Y016987D02*
X021923Y016995D01*
X021928Y016991D01*
X021906Y016958D01*
X021915Y01696D01*
X021906Y017006D02*
X021895Y017013D01*
X021901Y01701D01*
X021878Y016977D01*
X021887Y016978D01*
X02255Y018003D02*
X02255Y018036D01*
X022543Y018043D01*
X02253Y018043D01*
X022523Y018036D01*
X022523Y018003D01*
X022483Y018043D02*
X02251Y018043D01*
X022483Y018017D01*
X022483Y01801D01*
X02249Y018003D01*
X022503Y018003D01*
X02251Y01801D01*
X02247Y018043D02*
X022457Y018043D01*
X022463Y018043D01*
X022463Y018003D01*
X02247Y01801D01*
X022436Y01801D02*
X02243Y018004D01*
X022416Y018004D01*
X02241Y018011D01*
X02241Y018037D01*
X022417Y018044D01*
X02243Y018044D01*
X022437Y018037D01*
X022436Y01801D01*
X022504Y019219D02*
X02249Y019249D01*
X022481Y019252D01*
X022469Y019247D01*
X022466Y019238D01*
X02248Y019208D01*
X022427Y019227D02*
X022451Y019238D01*
X022438Y019203D01*
X022441Y019197D01*
X02245Y019194D01*
X022462Y019199D01*
X022465Y019208D01*
X022429Y019191D02*
X022426Y019182D01*
X022413Y019177D01*
X022405Y01918D01*
X022393Y019204D01*
X022397Y019213D01*
X022409Y019219D01*
X022418Y019215D01*
X022429Y019191D01*
X022381Y019199D02*
X022373Y019202D01*
X02236Y019196D01*
X022357Y019188D01*
X022368Y019163D01*
X022377Y01916D01*
X022389Y019166D01*
X022393Y019174D01*
X02239Y019181D01*
X022381Y019184D01*
X022363Y019175D01*
X021862Y020262D02*
X021833Y020279D01*
X021824Y020277D01*
X021817Y020265D01*
X021819Y020256D01*
X021848Y020239D01*
X021793Y020226D02*
X021807Y020248D01*
X021815Y020212D01*
X021821Y020208D01*
X02183Y02021D01*
X021837Y020222D01*
X021835Y020231D01*
X021814Y020197D02*
X021816Y020188D01*
X021809Y020176D01*
X0218Y020174D01*
X021777Y020188D01*
X021775Y020197D01*
X021782Y020209D01*
X021791Y020211D01*
X021814Y020197D01*
X021793Y020163D02*
X021795Y020154D01*
X021788Y020142D01*
X021779Y02014D01*
X021773Y020144D01*
X021771Y020153D01*
X021762Y020151D01*
X021756Y020154D01*
X021754Y020163D01*
X021761Y020175D01*
X02177Y020177D01*
X021776Y020173D01*
X021778Y020164D01*
X021787Y020166D01*
X021793Y020163D01*
X021778Y020164D02*
X021771Y020153D01*
X020775Y020842D02*
X020742Y020842D01*
X020735Y020836D01*
X020735Y020823D01*
X020742Y020816D01*
X020775Y020816D01*
X020735Y020776D02*
X020735Y020803D01*
X020761Y020776D01*
X020768Y020776D01*
X020775Y020782D01*
X020775Y020796D01*
X020768Y020802D01*
X020768Y020762D02*
X020775Y020756D01*
X020775Y020742D01*
X020768Y020736D01*
X020741Y020736D01*
X020735Y020743D01*
X020735Y020756D01*
X020741Y020763D01*
X020768Y020762D01*
X020775Y020722D02*
X020775Y020696D01*
X020768Y020696D01*
X020741Y020723D01*
X020735Y020723D01*
X019556Y020815D02*
X019526Y0208D01*
X019523Y020792D01*
X019529Y02078D01*
X019538Y020777D01*
X019568Y020791D01*
X01955Y020738D02*
X019538Y020762D01*
X019574Y02075D01*
X019579Y020753D01*
X019582Y020762D01*
X019577Y020774D01*
X019568Y020777D01*
X019585Y020741D02*
X019594Y020738D01*
X0196Y020726D01*
X019597Y020717D01*
X019573Y020705D01*
X019564Y020708D01*
X019559Y02072D01*
X019562Y020729D01*
X019585Y020741D01*
X019621Y020684D02*
X019609Y020693D01*
X019591Y020699D01*
X019579Y020693D01*
X019576Y020684D01*
X019582Y020672D01*
X019591Y020669D01*
X019597Y020672D01*
X0196Y020681D01*
X019591Y020699D01*
X018515Y020165D02*
X018496Y020138D01*
X018498Y020129D01*
X018509Y020121D01*
X018518Y020123D01*
X018537Y02015D01*
X018547Y020095D02*
X018525Y02011D01*
X018562Y020117D01*
X018566Y020122D01*
X018565Y020131D01*
X018554Y020139D01*
X018544Y020137D01*
X018577Y020114D02*
X018587Y020116D01*
X018597Y020109D01*
X018599Y020099D01*
X018584Y020077D01*
X018575Y020076D01*
X018564Y020083D01*
X018562Y020093D01*
X018577Y020114D01*
X018636Y020082D02*
X018614Y020097D01*
X018603Y020081D01*
X018617Y020079D01*
X018623Y020075D01*
X018624Y020066D01*
X018617Y020055D01*
X018608Y020053D01*
X018597Y02006D01*
X018595Y02007D01*
X017934Y019077D02*
X017933Y019044D01*
X017939Y019037D01*
X017952Y019037D01*
X017959Y019043D01*
X017961Y019076D01*
X017999Y019035D02*
X017972Y019036D01*
X018Y019061D01*
X018Y019068D01*
X017994Y019075D01*
X017981Y019076D01*
X017974Y019069D01*
X018014Y019067D02*
X018021Y019074D01*
X018034Y019073D01*
X01804Y019066D01*
X018039Y01904D01*
X018032Y019033D01*
X018019Y019034D01*
X018013Y019041D01*
X018014Y019067D01*
X018072Y019032D02*
X018074Y019072D01*
X018053Y019053D01*
X01808Y019051D01*
X017962Y017852D02*
X017975Y017821D01*
X017984Y017818D01*
X017996Y017823D01*
X017999Y017832D01*
X017986Y017862D01*
X018039Y017841D02*
X018014Y017831D01*
X018028Y017866D01*
X018025Y017872D01*
X018017Y017876D01*
X018004Y01787D01*
X018001Y017861D01*
X018038Y017877D02*
X018041Y017886D01*
X018053Y017891D01*
X018062Y017888D01*
X018073Y017864D01*
X018069Y017855D01*
X018057Y017849D01*
X018048Y017853D01*
X018038Y017877D01*
X018074Y017893D02*
X018078Y017902D01*
X01809Y017907D01*
X018099Y017904D01*
X018101Y017898D01*
X018098Y017889D01*
X018092Y017886D01*
X018098Y017889D01*
X018107Y017886D01*
X018109Y017879D01*
X018106Y017871D01*
X018094Y017865D01*
X018085Y017869D01*
X01863Y01681D02*
X018657Y016791D01*
X018666Y016793D01*
X018674Y016804D01*
X018672Y016813D01*
X018645Y016832D01*
X018701Y016842D02*
X018685Y01682D01*
X018679Y016857D01*
X018673Y016861D01*
X018664Y01686D01*
X018657Y016849D01*
X018658Y016839D01*
X018681Y016872D02*
X018679Y016881D01*
X018687Y016892D01*
X018696Y016894D01*
X018718Y016879D01*
X01872Y016869D01*
X018712Y016858D01*
X018703Y016857D01*
X018681Y016872D01*
X018747Y016908D02*
X018731Y016886D01*
X018725Y016923D01*
X018719Y016927D01*
X01871Y016925D01*
X018702Y016914D01*
X018704Y016905D01*
X01971Y01624D02*
X019743Y016238D01*
X01975Y016244D01*
X019751Y016257D01*
X019745Y016265D01*
X019712Y016267D01*
X019755Y016304D02*
X019753Y016277D01*
X019728Y016306D01*
X019722Y016306D01*
X019714Y0163D01*
X019713Y016287D01*
X01972Y01628D01*
X019722Y01632D02*
X019716Y016327D01*
X019717Y01634D01*
X019724Y016346D01*
X019751Y016344D01*
X019757Y016337D01*
X019756Y016324D01*
X019749Y016318D01*
X019722Y01632D01*
X019759Y016357D02*
X019759Y01637D01*
X019759Y016364D01*
X019719Y016367D01*
X019725Y01636D01*
X020545Y01618D02*
X020505Y016181D01*
X020506Y016201D01*
X020512Y016208D01*
X020526Y016207D01*
X020532Y0162D01*
X020532Y01618D01*
X020532Y016194D02*
X020546Y016207D01*
X020547Y016247D02*
X020546Y01622D01*
X02052Y016247D01*
X020514Y016248D01*
X020507Y016241D01*
X020506Y016228D01*
X020513Y016221D01*
X020547Y01626D02*
X020548Y016273D01*
X020548Y016267D01*
X020508Y016268D01*
X020514Y016261D01*
X020549Y01632D02*
X020548Y016293D01*
X020523Y016321D01*
X020516Y016321D01*
X020509Y016314D01*
X020509Y016301D01*
X020515Y016294D01*
X021838Y0165D02*
X021803Y016479D01*
X021793Y016496D01*
X021795Y016506D01*
X021807Y016513D01*
X021816Y01651D01*
X021826Y016493D01*
X021819Y016505D02*
X021824Y016523D01*
X021803Y016557D02*
X021817Y016534D01*
X02178Y016543D01*
X021775Y01654D01*
X021772Y016531D01*
X021779Y016519D01*
X021788Y016517D01*
X021796Y016569D02*
X021789Y01658D01*
X021793Y016574D01*
X021759Y016554D01*
X021768Y016551D01*
X021779Y016597D02*
X021772Y016608D01*
X021776Y016603D01*
X021741Y016582D01*
X02175Y01658D01*
X022448Y01758D02*
X022427Y017545D01*
X02241Y017556D01*
X022408Y017565D01*
X022414Y017576D01*
X022424Y017579D01*
X022441Y017568D01*
X022429Y017575D02*
X022424Y017593D01*
X02239Y017614D02*
X022413Y0176D01*
X022377Y017591D01*
X022373Y017585D01*
X022376Y017576D01*
X022387Y017569D01*
X022396Y017571D01*
X022378Y01762D02*
X022367Y017627D01*
X022373Y017624D01*
X022353Y017589D01*
X022362Y017592D01*
X022333Y017608D02*
X022324Y017606D01*
X022312Y017613D01*
X02231Y017622D01*
X022323Y017645D01*
X022332Y017647D01*
X022344Y017641D01*
X022346Y017631D01*
X022333Y017608D01*
X022588Y01885D02*
X022586Y01889D01*
X022606Y018891D01*
X022613Y018884D01*
X022614Y018871D01*
X022607Y018864D01*
X022587Y018863D01*
X0226Y018864D02*
X022614Y018851D01*
X022654Y018852D02*
X022627Y018851D01*
X022653Y018879D01*
X022653Y018885D01*
X022646Y018892D01*
X022633Y018891D01*
X022626Y018885D01*
X022666Y018886D02*
X022673Y018893D01*
X022686Y018893D01*
X022693Y018887D01*
X022694Y01886D01*
X022687Y018853D01*
X022674Y018853D01*
X022667Y018859D01*
X022666Y018886D01*
X022707Y01886D02*
X022714Y018854D01*
X022727Y018854D01*
X022734Y018861D01*
X022733Y018888D01*
X022726Y018894D01*
X022713Y018894D01*
X022706Y018887D01*
X022707Y01888D01*
X022713Y018874D01*
X022733Y018875D01*
X02218Y01996D02*
X022199Y019925D01*
X022181Y019915D01*
X022172Y019918D01*
X022166Y01993D01*
X022168Y019939D01*
X022186Y019948D01*
X022174Y019942D02*
X022156Y019948D01*
X022121Y019929D02*
X022145Y019941D01*
X022133Y019905D01*
X022136Y0199D01*
X022145Y019897D01*
X022157Y019903D01*
X02216Y019912D01*
X022125Y019893D02*
X022122Y019884D01*
X02211Y019878D01*
X022101Y019881D01*
X022089Y019905D01*
X022091Y019914D01*
X022103Y01992D01*
X022112Y019917D01*
X022125Y019893D01*
X022089Y019875D02*
X022086Y019866D01*
X022075Y01986D01*
X022066Y019862D01*
X022063Y019868D01*
X022065Y019877D01*
X022056Y01988D01*
X022053Y019886D01*
X022056Y019895D01*
X022068Y019901D01*
X022077Y019898D01*
X02208Y019892D01*
X022077Y019883D01*
X022086Y019881D01*
X022089Y019875D01*
X022077Y019883D02*
X022065Y019877D01*
X021207Y020748D02*
X021242Y020727D01*
X021232Y02071D01*
X021222Y020708D01*
X021211Y020714D01*
X021209Y020724D01*
X021219Y020741D01*
X021212Y020729D02*
X021194Y020725D01*
X021173Y02069D02*
X021187Y020713D01*
X021196Y020677D01*
X021202Y020673D01*
X021211Y020676D01*
X021218Y020687D01*
X021216Y020696D01*
X021195Y020662D02*
X021197Y020653D01*
X021191Y020641D01*
X021182Y020639D01*
X021159Y020653D01*
X021156Y020662D01*
X021163Y020673D01*
X021172Y020675D01*
X021195Y020662D01*
X02118Y020624D02*
X021167Y020601D01*
X021161Y020605D01*
X021152Y020641D01*
X021146Y020644D01*
X019898Y021107D02*
X019937Y021108D01*
X019938Y021088D01*
X019931Y021081D01*
X019918Y021081D01*
X019911Y021088D01*
X019911Y021108D01*
X019911Y021094D02*
X019898Y021081D01*
X019898Y021041D02*
X019898Y021068D01*
X019924Y021041D01*
X019931Y021041D01*
X019938Y021048D01*
X019938Y021061D01*
X019931Y021068D01*
X019931Y021028D02*
X019938Y021021D01*
X019938Y021008D01*
X019931Y021001D01*
X019904Y021001D01*
X019898Y021008D01*
X019898Y021021D01*
X019904Y021028D01*
X019931Y021028D01*
X019938Y020961D02*
X019931Y020974D01*
X019918Y020988D01*
X019904Y020988D01*
X019898Y020981D01*
X019898Y020968D01*
X019904Y020961D01*
X019911Y020961D01*
X019918Y020968D01*
X019918Y020988D01*
X018823Y020488D02*
X018856Y020509D01*
X018867Y020492D01*
X018865Y020483D01*
X018854Y020476D01*
X018844Y020478D01*
X018834Y020495D01*
X018841Y020483D02*
X018837Y020465D01*
X018858Y020431D02*
X018844Y020454D01*
X018881Y020445D01*
X018886Y020449D01*
X018888Y020458D01*
X018881Y020469D01*
X018872Y020471D01*
X018893Y020438D02*
X018903Y020436D01*
X01891Y020424D01*
X018908Y020415D01*
X018885Y020401D01*
X018876Y020403D01*
X018869Y020414D01*
X018871Y020423D01*
X018893Y020438D01*
X018935Y020385D02*
X01892Y020407D01*
X018903Y020397D01*
X018916Y020389D01*
X01892Y020383D01*
X018918Y020374D01*
X018906Y020367D01*
X018897Y020369D01*
X01889Y02038D01*
X018892Y02039D01*
X018043Y019477D02*
X018062Y019512D01*
X018079Y019503D01*
X018082Y019494D01*
X018076Y019482D01*
X018066Y019479D01*
X018049Y019489D01*
X018061Y019483D02*
X018066Y019465D01*
X018101Y019445D02*
X018077Y019458D01*
X018114Y019468D01*
X018117Y019474D01*
X018114Y019483D01*
X018103Y01949D01*
X018094Y019487D01*
X018129Y019468D02*
X018138Y01947D01*
X018149Y019464D01*
X018152Y019455D01*
X018139Y019431D01*
X01813Y019429D01*
X018118Y019435D01*
X018116Y019444D01*
X018129Y019468D01*
X018165Y019409D02*
X018184Y019444D01*
X018157Y019437D01*
X01818Y019424D01*
X017838Y018282D02*
Y018322D01*
X017857D01*
X017864Y018316D01*
Y018302D01*
X017857Y018296D01*
X017838D01*
X017851D02*
X017864Y018282D01*
X017904D02*
X017877D01*
X017904Y018309D01*
Y018316D01*
X017897Y018322D01*
X017884D01*
X017877Y018316D01*
X017917D02*
X017924Y018322D01*
X017937D01*
X017944Y018316D01*
Y018289D01*
X017937Y018282D01*
X017924D01*
X017917Y018289D01*
Y018316D01*
X017957D02*
X017964Y018322D01*
X017977D01*
X017984Y018316D01*
Y018309D01*
X017977Y018302D01*
X017971D01*
X017977D01*
X017984Y018296D01*
Y018289D01*
X017977Y018282D01*
X017964D01*
X017957Y018289D01*
X018323Y017107D02*
X018303Y017143D01*
X018321Y017152D01*
X01833Y01715D01*
X018336Y017138D01*
X018334Y017129D01*
X018316Y017119D01*
X018328Y017126D02*
X018346Y01712D01*
X018381Y017139D02*
X018358Y017127D01*
X018368Y017163D01*
X018365Y017169D01*
X018356Y017171D01*
X018344Y017165D01*
X018342Y017156D01*
X018377Y017175D02*
X018379Y017184D01*
X018391Y01719D01*
X0184Y017188D01*
X018413Y017164D01*
X01841Y017155D01*
X018399Y017149D01*
X01839Y017152D01*
X018377Y017175D01*
X018451Y017178D02*
X018428Y017165D01*
X018439Y017201D01*
X018435Y017207D01*
X018426Y01721D01*
X018415Y017203D01*
X018412Y017194D01*
X019288Y016325D02*
X019252Y016344D01*
X019262Y016362D01*
X019271Y016364D01*
X019283Y016358D01*
X019285Y016349D01*
X019276Y016331D01*
X019282Y016343D02*
X0193Y016348D01*
X019319Y016384D02*
X019307Y01636D01*
X019296Y016396D01*
X01929Y016399D01*
X019281Y016397D01*
X019275Y016385D01*
X019277Y016376D01*
X019296Y016411D02*
X019294Y01642D01*
X0193Y016432D01*
X019309Y016435D01*
X019332Y016422D01*
X019335Y016413D01*
X019329Y016401D01*
X01932Y016398D01*
X019296Y016411D01*
X019345Y01643D02*
X019351Y016442D01*
X019348Y016436D01*
X019313Y016455D01*
X019315Y016446D01*
X020523Y016645D02*
Y016685D01*
X020542D01*
X020549Y016678D01*
Y016665D01*
X020542Y016658D01*
X020523D01*
X020536D02*
X020549Y016645D01*
X020562D02*
X020576D01*
X020569D01*
Y016685D01*
X020562Y016678D01*
X020596D02*
X020602Y016685D01*
X020616D01*
X020622Y016678D01*
Y016652D01*
X020616Y016645D01*
X020602D01*
X020596Y016652D01*
Y016678D01*
X020636D02*
X020642Y016685D01*
X020656D01*
X020662Y016678D01*
Y016672D01*
X020656Y016665D01*
X020662Y016658D01*
Y016652D01*
X020656Y016645D01*
X020642D01*
X020636Y016652D01*
Y016658D01*
X020642Y016665D01*
X020636Y016672D01*
Y016678D01*
X020642Y016665D02*
X020656D01*
X019593Y016727D02*
Y016767D01*
X019612D01*
X019619Y016761D01*
Y016747D01*
X019612Y016741D01*
X019593D01*
X019606D02*
X019619Y016727D01*
X019632D02*
X019646D01*
X019639D01*
Y016767D01*
X019632Y016761D01*
X019666D02*
X019672Y016767D01*
X019686D01*
X019692Y016761D01*
Y016734D01*
X019686Y016727D01*
X019672D01*
X019666Y016734D01*
Y016761D01*
X019706Y016727D02*
X019719D01*
X019712D01*
Y016767D01*
X019706Y016761D01*
X020865Y016041D02*
X020873Y016036D01*
X020886Y01604D01*
X020891Y016048D01*
X020884Y016074D01*
X020876Y016078D01*
X020863Y016075D01*
X020858Y016067D01*
X020818Y016064D02*
X020844Y01607D01*
X020824Y016038D01*
X020826Y016032D01*
X020834Y016027D01*
X020847Y01603D01*
X020852Y016038D01*
X020805Y016061D02*
X020792Y016058D01*
X020798Y016059D01*
X020808Y01602D01*
X020813Y016028D01*
X020781Y01602D02*
X020776Y016012D01*
X020763Y016009D01*
X020755Y016014D01*
X020753Y01602D01*
X020758Y016029D01*
X02075Y016033D01*
X020748Y01604D01*
X020753Y016048D01*
X020766Y016051D01*
X020774Y016046D01*
X020776Y01604D01*
X020771Y016032D01*
X020779Y016027D01*
X020781Y01602D01*
X020771Y016032D02*
X020758Y016029D01*
X02206Y01672D02*
X022069Y01672D01*
X022079Y01673D01*
X022079Y016739D01*
X02206Y016758D01*
X02205Y016758D01*
X022041Y016748D01*
X022041Y016739D01*
X022008Y016715D02*
X022027Y016734D01*
X022027Y016696D01*
X022032Y016692D01*
X022041Y016692D01*
X022051Y016701D01*
X022051Y016711D01*
X021999Y016706D02*
X021989Y016696D01*
X021994Y016701D01*
X022022Y016673D01*
X022022Y016682D01*
X022004Y016654D02*
X021985Y016635D01*
X02198Y01664D01*
X02198Y016677D01*
X021975Y016682D01*
X022713Y017821D02*
X022721Y017825D01*
X022726Y017838D01*
X022721Y017847D01*
X022696Y017855D01*
X022688Y017851D01*
X022683Y017839D01*
X022688Y01783D01*
X022668Y017795D02*
X022677Y01782D01*
X022693Y017786D01*
X0227Y017784D01*
X022708Y017788D01*
X022712Y0178D01*
X022708Y017809D01*
X022664Y017782D02*
X022659Y017769D01*
X022662Y017776D01*
X022699Y017763D01*
X022695Y017771D01*
X022682Y017712D02*
X02268Y017727D01*
X022672Y017744D01*
X022659Y017748D01*
X022651Y017744D01*
X022646Y017732D01*
X02265Y017723D01*
X022657Y017721D01*
X022665Y017725D01*
X022672Y017744D01*
X022628Y019153D02*
X022619Y019157D01*
X022607Y019152D01*
X022603Y019144D01*
X022613Y019119D01*
X022621Y019115D01*
X022634Y01912D01*
X022637Y019128D01*
X022677Y019137D02*
X022652Y019127D01*
X022667Y019162D01*
X022665Y019168D01*
X022656Y019172D01*
X022644Y019167D01*
X02264Y019158D01*
X022689Y019142D02*
X022702Y019146D01*
X022696Y019144D01*
X022681Y019181D01*
X022677Y019173D01*
X022731Y019201D02*
X022706Y019191D01*
X022713Y019172D01*
X022723Y019183D01*
X022729Y019186D01*
X022738Y019182D01*
X022743Y01917D01*
X022739Y019161D01*
X022727Y019156D01*
X022718Y01916D01*
X0217Y01668D02*
X021698Y016671D01*
X021704Y016659D01*
X021713Y016657D01*
X021737Y016669D01*
X021739Y016678D01*
X021733Y01669D01*
X021724Y016693D01*
X021711Y016731D02*
X021723Y016708D01*
X021687Y016718D01*
X021681Y016715D01*
X021679Y016706D01*
X021685Y016694D01*
X021694Y016692D01*
X021704Y016743D02*
X021698Y016754D01*
X021701Y016749D01*
X021666Y016729D01*
X021675Y016727D01*
X021679Y016789D02*
X021644Y01677D01*
X021671Y016762D01*
X021658Y016786D01*
X022406Y019019D02*
X022398Y019023D01*
X022385Y01902D01*
X02238Y019012D01*
X022386Y018986D01*
X022394Y018982D01*
X022407Y018985D01*
X022412Y018993D01*
X022452Y018995D02*
X022426Y018989D01*
X022446Y019021D01*
X022445Y019028D01*
X022437Y019033D01*
X022424Y01903D01*
X022419Y019022D01*
X022465Y018998D02*
X022478Y019001D01*
X022472Y019D01*
X022463Y019039D01*
X022458Y019031D01*
X02249Y019038D02*
X022495Y019046D01*
X022508Y019049D01*
X022516Y019044D01*
X022518Y019038D01*
X022513Y01903D01*
X022506Y019028D01*
X022513Y01903D01*
X022521Y019025D01*
X022522Y019018D01*
X022517Y01901D01*
X022504Y019007D01*
X022496Y019012D01*
X022126Y020245D02*
X022135Y020243D01*
X022146Y020251D01*
X022147Y020261D01*
X022131Y020282D01*
X022122Y020284D01*
X022111Y020276D01*
X02211Y020266D01*
X022074Y020248D02*
X022095Y020264D01*
X02209Y020227D01*
X022094Y020221D01*
X022103Y02022D01*
X022114Y020228D01*
X022115Y020237D01*
X022063Y02024D02*
X022052Y020232D01*
X022058Y020236D01*
X022081Y020204D01*
X022083Y020213D01*
X022015Y020204D02*
X022036Y02022D01*
X022031Y020183D01*
X022035Y020178D01*
X022044Y020176D01*
X022055Y020184D01*
X022056Y020193D01*
X020966Y020999D02*
X020974Y021004D01*
X020977Y021017D01*
X020972Y021025D01*
X020946Y021031D01*
X020938Y021026D01*
X020935Y021013D01*
X02094Y021005D01*
X020925Y020968D02*
X020931Y020994D01*
X02095Y020961D01*
X020957Y02096D01*
X020965Y020965D01*
X020968Y020978D01*
X020963Y020986D01*
X020921Y020955D02*
X020918Y020942D01*
X02092Y020948D01*
X020959Y020939D01*
X020954Y020947D01*
X020914Y020922D02*
X020911Y020909D01*
X020912Y020916D01*
X020951Y020907D01*
X020946Y020915D01*
X019653Y021034D02*
X019658Y021041D01*
X019655Y021054D01*
X019648Y02106D01*
X019622Y021054D01*
X019616Y021046D01*
X019619Y021033D01*
X019627Y021028D01*
X019629Y020987D02*
X019623Y021013D01*
X019655Y020993D01*
X019662Y020994D01*
X019667Y021002D01*
X019664Y021015D01*
X019656Y02102D01*
X019632Y020974D02*
X019635Y020961D01*
X019633Y020968D01*
X019672Y020976D01*
X019665Y020981D01*
X019672Y020949D02*
X01968Y020944D01*
X019682Y020931D01*
X019677Y020923D01*
X019651Y020917D01*
X019643Y020922D01*
X01964Y020935D01*
X019646Y020943D01*
X019672Y020949D01*
X018513Y020412D02*
X018523Y020412D01*
X018533Y020421D01*
X018533Y020431D01*
X018515Y02045D01*
X018505Y02045D01*
X018495Y020441D01*
X018495Y020432D01*
X018462Y020409D02*
X018481Y020428D01*
X01848Y02039D01*
X018484Y020385D01*
X018494Y020385D01*
X018504Y020394D01*
X018504Y020403D01*
X018475Y020376D02*
X018474Y020366D01*
X018465Y020357D01*
X018455Y020358D01*
X018437Y020377D01*
X018437Y020386D01*
X018447Y020396D01*
X018456Y020395D01*
X018475Y020376D01*
X018427Y020368D02*
X018418Y020368D01*
X018408Y020359D01*
X018408Y02035D01*
X018426Y02033D01*
X018436Y02033D01*
X018445Y020339D01*
X018446Y020348D01*
X018441Y020353D01*
X018432Y020354D01*
X018417Y02034D01*
X021052Y020687D02*
X02106Y020692D01*
X021064Y020705D01*
X021059Y020713D01*
X021034Y020721D01*
X021026Y020716D01*
X021022Y020703D01*
X021026Y020695D01*
X021009Y020659D02*
X021016Y020684D01*
X021034Y020651D01*
X021041Y020649D01*
X021049Y020654D01*
X021053Y020666D01*
X021048Y020675D01*
X021037Y020636D02*
X021041Y020628D01*
X021037Y020615D01*
X021029Y020611D01*
X021004Y020618D01*
X020999Y020627D01*
X021003Y020639D01*
X021011Y020644D01*
X021037Y020636D01*
X021025Y020598D02*
X02103Y02059D01*
X021026Y020577D01*
X021018Y020572D01*
X021011Y020574D01*
X021007Y020583D01*
X020999Y020578D01*
X020992Y02058D01*
X020988Y020588D01*
X020992Y020601D01*
X021Y020606D01*
X021006Y020604D01*
X021011Y020595D01*
X021019Y0206D01*
X021025Y020598D01*
X021011Y020595D02*
X021007Y020583D01*
X018848Y02036D02*
X018849Y020369D01*
X018842Y02038D01*
X018832Y020382D01*
X01881Y020366D01*
X018809Y020357D01*
X018816Y020346D01*
X018826Y020344D01*
X018843Y020308D02*
X018828Y02033D01*
X018865Y020323D01*
X01887Y020327D01*
X018872Y020336D01*
X018864Y020347D01*
X018855Y020349D01*
X018878Y020316D02*
X018887Y020314D01*
X018895Y020303D01*
X018893Y020294D01*
X018871Y020279D01*
X018862Y02028D01*
X018854Y020291D01*
X018856Y020301D01*
X018878Y020316D01*
X018906Y020287D02*
X018922Y020265D01*
X018916Y020261D01*
X018879Y020268D01*
X018873Y020264D01*
X017776Y019227D02*
X01777Y019234D01*
X017757Y019236D01*
X01775Y01923D01*
X017746Y019204D01*
X017752Y019197D01*
X017765Y019195D01*
X017772Y0192D01*
X017811Y019188D02*
X017785Y019192D01*
X017815Y019214D01*
X017816Y019221D01*
X01781Y019229D01*
X017797Y01923D01*
X017789Y019225D01*
X017829Y019219D02*
X017836Y019225D01*
X01785Y019223D01*
X017855Y019215D01*
X017852Y019189D01*
X017844Y019183D01*
X017831Y019185D01*
X017825Y019193D01*
X017829Y019219D01*
X017896Y019216D02*
X017882Y019212D01*
X017867Y0192D01*
X017865Y019187D01*
X01787Y01918D01*
X017884Y019178D01*
X017891Y019183D01*
X017892Y01919D01*
X017886Y019198D01*
X017867Y0192D01*
X017754Y018012D02*
X017759Y01802D01*
X017755Y018033D01*
X017747Y018038D01*
X017721Y018032D01*
X017717Y018024D01*
X01772Y018011D01*
X017728Y018006D01*
X01773Y017965D02*
X017724Y017991D01*
X017756Y017971D01*
X017763Y017973D01*
X017768Y017981D01*
X017765Y017994D01*
X017757Y017999D01*
X017766Y01796D02*
X017774Y017955D01*
X017777Y017942D01*
X017772Y017934D01*
X017746Y017928D01*
X017738Y017933D01*
X017735Y017946D01*
X01774Y017954D01*
X017766Y01796D01*
X017788Y017897D02*
X017782Y017922D01*
X017762Y017918D01*
X017772Y017906D01*
X017773Y0179D01*
X017768Y017892D01*
X017755Y017889D01*
X017747Y017894D01*
X017744Y017907D01*
X017749Y017915D01*
X018353Y016826D02*
X018353Y016835D01*
X018344Y016845D01*
X018334Y016845D01*
X018315Y016827D01*
X018315Y016818D01*
X018324Y016808D01*
X018333Y016808D01*
X018355Y016774D02*
X018337Y016793D01*
X018375Y016792D01*
X01838Y016796D01*
X01838Y016806D01*
X018371Y016816D01*
X018362Y016816D01*
X018389Y016787D02*
X018398Y016786D01*
X018407Y016777D01*
X018407Y016767D01*
X018388Y016749D01*
X018378Y016749D01*
X018369Y016759D01*
X018369Y016769D01*
X018389Y016787D01*
X018405Y01672D02*
X018435Y016747D01*
X018406Y016748D01*
X018425Y016729D01*
X019544Y016066D02*
X019536Y016061D01*
X019533Y016048D01*
X019538Y01604D01*
X019564Y016034D01*
X019572Y016039D01*
X019575Y016052D01*
X01957Y01606D01*
X019586Y016097D02*
X01958Y016071D01*
X01956Y016104D01*
X019553Y016105D01*
X019545Y0161D01*
X019542Y016087D01*
X019547Y016079D01*
X019557Y016118D02*
X019552Y016126D01*
X019555Y016139D01*
X019563Y016144D01*
X019589Y016138D01*
X019594Y01613D01*
X019591Y016117D01*
X019583Y016112D01*
X019557Y016118D01*
X019566Y016157D02*
X019561Y016165D01*
X019564Y016178D01*
X019573Y016183D01*
X019579Y016181D01*
X019584Y016173D01*
X019582Y016167D01*
X019584Y016173D01*
X019592Y016178D01*
X019598Y016176D01*
X019603Y016168D01*
X0196Y016155D01*
X019592Y016151D01*
X017911Y018089D02*
X017904Y018096D01*
X017891Y018095D01*
X017884Y018088D01*
X017885Y018062D01*
X017892Y018055D01*
X017905Y018056D01*
X017911Y018062D01*
X017952Y018057D02*
X017925Y018056D01*
X017951Y018083D01*
X017951Y01809D01*
X017944Y018097D01*
X017931Y018096D01*
X017924Y018089D01*
X017964Y018091D02*
X017971Y018097D01*
X017984Y018098D01*
X017991Y018091D01*
X017991Y018065D01*
X017985Y018058D01*
X017972Y018057D01*
X017965Y018064D01*
X017964Y018091D01*
X018032Y018059D02*
X018005Y018058D01*
X018031Y018086D01*
X018031Y018092D01*
X018024Y018099D01*
X01801Y018098D01*
X018004Y018092D01*
X019461Y016209D02*
X019452Y016205D01*
X019447Y016193D01*
X019451Y016184D01*
X019476Y016175D01*
X019485Y016179D01*
X01949Y016191D01*
X019486Y0162D01*
X019506Y016235D02*
X019497Y01621D01*
X019481Y016244D01*
X019475Y016247D01*
X019466Y016243D01*
X019462Y01623D01*
X019465Y016222D01*
X01948Y016259D02*
X019476Y016268D01*
X01948Y01628D01*
X019489Y016284D01*
X019514Y016275D01*
X019518Y016266D01*
X019513Y016254D01*
X019504Y01625D01*
X01948Y016259D01*
X019525Y016285D02*
X01953Y016297D01*
X019527Y016291D01*
X01949Y016305D01*
X019494Y016297D01*
X020118Y016607D02*
X020117Y016647D01*
X020137Y016648D01*
X020144Y016641D01*
X020144Y016628D01*
X020137Y016621D01*
X020117Y016621D01*
X020131Y016621D02*
X020144Y016608D01*
X020157Y016608D02*
X020171Y016608D01*
X020164Y016608D01*
X020164Y016648D01*
X020157Y016641D01*
X02019Y016642D02*
X020197Y016648D01*
X02021Y016649D01*
X020217Y016642D01*
X020217Y016615D01*
X020211Y016609D01*
X020197Y016608D01*
X020191Y016615D01*
X02019Y016642D01*
X020257Y016649D02*
X02023Y016649D01*
X020231Y016629D01*
X020244Y016636D01*
X02025Y016636D01*
X020257Y016629D01*
X020257Y016616D01*
X020251Y016609D01*
X020237Y016609D01*
X020231Y016616D01*
X020623Y016885D02*
X020583Y016885D01*
X020582Y016905D01*
X020589Y016911D01*
X020602Y016911D01*
X020609Y016905D01*
X020609Y016885D01*
X020609Y016898D02*
X020622Y016912D01*
X020622Y016925D02*
X020622Y016938D01*
X020622Y016932D01*
X020582Y016931D01*
X020589Y016925D01*
X020588Y016958D02*
X020582Y016965D01*
X020582Y016978D01*
X020588Y016985D01*
X020615Y016985D01*
X020622Y016978D01*
X020622Y016965D01*
X020615Y016958D01*
X020588Y016958D01*
X020581Y016998D02*
X020581Y017025D01*
X020588Y017025D01*
X020615Y016998D01*
X020621Y016998D01*
X019593Y01647D02*
X019593Y01651D01*
X019613Y01651D01*
X019619Y016503D01*
X019619Y01649D01*
X019613Y016483D01*
X019593Y016483D01*
X019606Y016483D02*
X019619Y01647D01*
X019632Y01647D02*
X019646Y016469D01*
X019639Y01647D01*
X01964Y01651D01*
X019633Y016503D01*
X019666Y016503D02*
X019673Y016509D01*
X019686Y016509D01*
X019693Y016502D01*
X019693Y016476D01*
X019686Y016469D01*
X019672Y016469D01*
X019666Y016476D01*
X019666Y016503D01*
X019733Y016509D02*
X019719Y016502D01*
X019706Y016489D01*
X019706Y016476D01*
X019712Y016469D01*
X019726Y016469D01*
X019733Y016475D01*
X019733Y016482D01*
X019726Y016489D01*
X019706Y016489D01*
X02058Y016325D02*
Y016365D01*
X0206D01*
X020607Y016358D01*
Y016345D01*
X0206Y016338D01*
X02058D01*
X020593D02*
X020607Y016325D01*
X02062D02*
X020633D01*
X020627D01*
Y016365D01*
X02062Y016358D01*
X020653D02*
X02066Y016365D01*
X020673D01*
X02068Y016358D01*
Y016332D01*
X020673Y016325D01*
X02066D01*
X020653Y016332D01*
Y016358D01*
X020713Y016325D02*
Y016365D01*
X020693Y016345D01*
X02072D01*
X019907Y016465D02*
X019907Y016505D01*
X019927Y016505D01*
X019933Y016499D01*
X019934Y016486D01*
X019927Y016479D01*
X019907Y016478D01*
X019921Y016479D02*
X019934Y016466D01*
X019947Y016466D02*
X019961Y016466D01*
X019954Y016466D01*
X019953Y016506D01*
X019947Y016499D01*
X01998Y0165D02*
X019987Y016507D01*
X02Y016507D01*
X020007Y016501D01*
X020007Y016474D01*
X020001Y016467D01*
X019987Y016467D01*
X019981Y016473D01*
X01998Y0165D01*
X02002Y016501D02*
X020027Y016508D01*
X02004Y016508D01*
X020047Y016501D01*
X020047Y016495D01*
X02004Y016488D01*
X020034Y016488D01*
X02004Y016488D01*
X020047Y016481D01*
X020047Y016475D01*
X020041Y016468D01*
X020027Y016468D01*
X020021Y016474D01*
X019862Y016735D02*
Y016775D01*
X019882D01*
X019889Y016768D01*
Y016755D01*
X019882Y016748D01*
X019862D01*
X019876D02*
X019889Y016735D01*
X019902D02*
X019916D01*
X019909D01*
Y016775D01*
X019902Y016768D01*
X019936D02*
X019942Y016775D01*
X019956D01*
X019962Y016768D01*
Y016742D01*
X019956Y016735D01*
X019942D01*
X019936Y016742D01*
Y016768D01*
X020002Y016735D02*
X019976D01*
X020002Y016762D01*
Y016768D01*
X019996Y016775D01*
X019982D01*
X019976Y016768D01*
X020044Y016931D02*
X020037Y016937D01*
X020024D01*
X020018Y016931D01*
Y016904D01*
X020024Y016898D01*
X020037D01*
X020044Y016904D01*
X020057Y016898D02*
X020071D01*
X020064D01*
Y016937D01*
X020057Y016931D01*
X020091D02*
X020097Y016937D01*
X020111D01*
X020117Y016931D01*
Y016904D01*
X020111Y016898D01*
X020097D01*
X020091Y016904D01*
Y016931D01*
X020131Y016898D02*
X020144D01*
X020137D01*
Y016937D01*
X020131Y016931D01*
X020195Y01703D02*
X020195Y016997D01*
X020202Y01699D01*
X020215Y01699D01*
X020222Y016997D01*
X020221Y01703D01*
X020235Y01699D02*
X020248Y016991D01*
X020242Y016991D01*
X020241Y017031D01*
X020235Y017024D01*
X020268Y017024D02*
X020274Y017031D01*
X020288Y017031D01*
X020295Y017024D01*
X020295Y016998D01*
X020288Y016991D01*
X020275Y016991D01*
X020268Y016998D01*
X020268Y017024D01*
X020308Y016991D02*
X020322Y016991D01*
X020315Y016991D01*
X020314Y017031D01*
X020308Y017025D01*
D61*
X022037Y0197D02*
X022259Y019252D01*
X022485Y019923D02*
X022707Y019475D01*
X021216Y020441D02*
X021632Y020164D01*
X021493Y020857D02*
X021909Y020581D01*
X020134Y020671D02*
X020634Y02064D01*
X020165Y02117D02*
X020664Y021139D01*
X021869Y01715D02*
X022146Y017567D01*
X022286Y016874D02*
X022562Y01729D01*
X02096Y016523D02*
X021408Y016745D01*
X021182Y016075D02*
X02163Y016298D01*
X018858Y01691D02*
X019274Y016634D01*
X018582Y016493D02*
X018999Y016217D01*
X019083Y02033D02*
X019531Y020553D01*
X01886Y020777D02*
X019307Y021001D01*
X018224Y017825D02*
X018451Y017379D01*
X017778Y017598D02*
X018005Y017152D01*
X01986Y016437D02*
X020358Y016402D01*
X019825Y015938D02*
X020324Y015904D01*
X018109Y018427D02*
X018141Y018926D01*
X01761Y018458D02*
X017642Y018957D01*
X022347Y01815D02*
X022378Y018649D01*
X022846Y018118D02*
X022877Y018618D01*
X01834Y019508D02*
X01862Y019922D01*
X017925Y019788D02*
X018205Y020202D01*
D62*
X02032Y016882D02*
X02032Y016912D01*
X02054Y016912D02*
X02054Y016882D01*
X02032D02*
X02054D01*
X02032Y016912D02*
X02054Y016912D01*
D63*
X02071Y017014D02*
X020722Y017002D01*
X020745D01*
X020757Y017014D01*
Y017061D01*
X020745Y017072D01*
X020722D01*
X02071Y017061D01*
Y017049D01*
X020722Y017037D01*
X020757D01*
X02078Y017061D02*
X020792Y017072D01*
X020815D01*
X020827Y017061D01*
Y017014D01*
X020815Y017002D01*
X020792D01*
X02078Y017014D01*
Y017061D01*
X020897Y017072D02*
X02085D01*
Y017037D01*
X020873Y017049D01*
X020885D01*
X020897Y017037D01*
Y017014D01*
X020885Y017002D01*
X020862D01*
X02085Y017014D01*
X02092Y017037D02*
X020967D01*
X02099Y017061D02*
X021002Y017072D01*
X021025D01*
X021037Y017061D01*
Y017014D01*
X021025Y017002D01*
X021002D01*
X02099Y017014D01*
Y017061D01*
X02106D02*
X021072Y017072D01*
X021095D01*
X021107Y017061D01*
Y017014D01*
X021095Y017002D01*
X021072D01*
X02106Y017014D01*
Y017061D01*
X02113D02*
X021142Y017072D01*
X021165D01*
X021177Y017061D01*
Y017014D01*
X021165Y017002D01*
X021142D01*
X02113Y017014D01*
Y017061D01*
X0212D02*
X021212Y017072D01*
X021235D01*
X021246Y017061D01*
Y017014D01*
X021235Y017002D01*
X021212D01*
X0212Y017014D01*
Y017061D01*
X021316Y017072D02*
X021293Y017061D01*
X02127Y017037D01*
Y017014D01*
X021281Y017002D01*
X021305D01*
X021316Y017014D01*
Y017026D01*
X021305Y017037D01*
X02127D01*
X02134D02*
X021386D01*
X02141Y017061D02*
X021421Y017072D01*
X021445D01*
X021456Y017061D01*
Y017014D01*
X021445Y017002D01*
X021421D01*
X02141Y017014D01*
Y017061D01*
X021515Y017002D02*
Y017072D01*
X02148Y017037D01*
X021526D01*
X02162Y017072D02*
Y017002D01*
X021655D01*
X021666Y017014D01*
Y017061D01*
X021655Y017072D01*
X02162D01*
X02169D02*
Y017026D01*
X021713Y017002D01*
X021736Y017026D01*
Y017072D01*
X02176D02*
X021806D01*
X021783D01*
Y017002D01*
X020757Y016944D02*
X020746Y016956D01*
X020722D01*
X020711Y016944D01*
Y016897D01*
X020722Y016886D01*
X020746D01*
X020757Y016897D01*
X020792Y016886D02*
X020816D01*
X020827Y016897D01*
Y016921D01*
X020816Y016932D01*
X020792D01*
X020781Y016921D01*
Y016897D01*
X020792Y016886D01*
X020851Y016862D02*
Y016932D01*
X020886D01*
X020897Y016921D01*
Y016897D01*
X020886Y016886D01*
X020851D01*
X020921Y016932D02*
Y016897D01*
X020932Y016886D01*
X020967D01*
Y016874D01*
X020956Y016862D01*
X020944D01*
X020967Y016886D02*
Y016932D01*
X020991D02*
Y016886D01*
Y016909D01*
X021002Y016921D01*
X021014Y016932D01*
X021026D01*
X021061Y016886D02*
X021084D01*
X021072D01*
Y016932D01*
X021061D01*
X021142Y016862D02*
X021154D01*
X021166Y016874D01*
Y016932D01*
X021131D01*
X021119Y016921D01*
Y016897D01*
X021131Y016886D01*
X021166D01*
X021189Y016956D02*
Y016886D01*
Y016921D01*
X021201Y016932D01*
X021224D01*
X021236Y016921D01*
Y016886D01*
X021271Y016944D02*
Y016932D01*
X021259D01*
X021282D01*
X021271D01*
Y016897D01*
X021282Y016886D01*
X021434D02*
X021387D01*
X021434Y016932D01*
Y016944D01*
X021422Y016956D01*
X021399D01*
X021387Y016944D01*
X021457D02*
X021469Y016956D01*
X021492D01*
X021504Y016944D01*
Y016897D01*
X021492Y016886D01*
X021469D01*
X021457Y016897D01*
Y016944D01*
X021527Y016886D02*
X02155D01*
X021539D01*
Y016956D01*
X021527Y016944D01*
X02162Y016886D02*
Y016956D01*
X021585Y016921D01*
X021632D01*
M02*
